<svg xmlns="http://www.w3.org/2000/svg" viewBox="0 0 1000 1000" xml:space="preserve"><path fill="#FFF" d="M689 1001c-228.167 0-455.833-.01-683.5.094-3.75.001-4.594-.845-4.593-4.594.1-330.333.1-660.667 0-991C.906 1.75 1.75.906 5.5.907c330.333.1 660.667.1 991 0 3.75-.001 4.594.844 4.593 4.593-.1 330.333-.1 660.667 0 991 .001 3.75-.843 4.6-4.593 4.595-102.333-.119-204.667-.095-307.5-.095z"/><path fill="#5D6683" d="M754.762 623.576c1.864 2.37 4.255 1.285 6.265 1.822 15.775 4.216 25.934 13.909 29.784 30.304-.668 3.743-.206 7.133-.135 10.87-2.605 17.034-15.684 30.015-31.613 31.373-3.375.287-4.076 1.359-4.009 4.426.396 18.227-3.899 35.205-13.94 50.576-6.458 9.885-14.64 18-24.576 24.424-2.193 1.419-5.15 1.198-7.166 3.596-2.666-.13-4.553 1.133-6.376 2.165-4.223 2.39-8.932 3.322-13.718 5.094-.722.382-1.142.59-1.924.749-4.578.097-8.794.023-13.01-.002-1.577-.01-3.298.327-4.607-1.632 1.956-3.249 4.575-3.958 8.13-4.544 5.269-.868 11.388-.192 16.13-5.007-4.412-2.165-8.824-2.132-13.187-2.242-18.804-.477-37.59 1.017-56.371.824-16.606-.17-33.248-.373-49.834-1.703-4.482-.36-8.975-.356-13.345 1.126-2.393.812-4.924.733-7.423.734-32.457.008-64.936.74-97.364-.237-24.631-.743-49.243-.302-73.857-.807-5.978-.122-11.91-1.326-18.348-.988-3.074-.182-5.749-.36-8.374-.105-9.748.945-19.083-.824-28.077-4.349-3.683-1.443-4.81-.016-5.4 3.529-1.237 1.337-2.548.883-3.774.97-2.06.148-1.739 1.338-.88 2.905 2.514 2.708 5.628 3.132 8.708 3.693 2.878.524 5.425 1.528 5.88 5.275-3.556 2.9-6.07-.37-9.387-1.174-13.466-4.18-24.014-12.102-32.964-22.152-14.214-15.96-20.736-34.933-21.078-56.173-.12-7.437-.167-7.436-7.245-9.018-17.833-3.988-29.888-18.753-29.64-36.307.257-18.175 13.025-32.824 32.253-36.288 3.534-.637 4.303-1.879 4.254-4.936a1418.23 1418.23 0 0 1-.148-24.962c.004-2.123-.546-2.958-2.917-3.555-29.186-7.344-44.415-37.508-32.218-64.707 6.307-14.063 17.185-23.431 33.326-26.16 5.437.367 9.992 1.203 14.828 3.753 7.025 3.703 15.167 6.067 23.421 2.037 3.56-1.738 7.478-1.312 11.285-.83 1.54.196 3.007.927 3.199 2.667.236 2.138-1.533 2.727-3.105 3.282-2.515.888-5.278.007-8.766 1.256 5.118.837 9.344.315 13.956.422 10.012-.09 19.603-.33 29.584.194 3.09.014 1.912 3.877 4.787 3.974 27.05-.48 53.714-.236 80.375-.256 69.995-.05 139.99-.014 209.984-.025 3.956 0 7.916.44 11.24-2.815 1.69-1.654 4.428-1.155 6.753-1.162 11.332-.034 22.665-.048 33.997.005 3.802.018 6.962-.373 9.33-4.213 2.373-3.852 8.55-3.736 11.671.247 3.123 3.984 6.63 4.798 11.369 4.142 4.932-.683 9.985-.072 14.98-.246 1.968-.069 4.362.078 4.667-2.64.392-3.501 2.088-7.467-1.877-10.057-2.26-1.476-5.002-2.259-7.563-.867-1.985 1.077-2.06 3.251-1.784 5.34.443 3.362-1.091 5.393-4.277 6.328-1.28.375-2.496.931-3.742 1.406-4.779 1.823-7.556 1.195-10.12-3.324-1.897-3.345-4.391-4.928-7.985-4.916-19.318.065-38.648-.929-57.95.573-2.83.22-5.659.213-8.488.304-1.992.065-3.877.256-5.688 1.453-5.838 3.86-10.306 3.49-15.568-1.04-.512-.44-.988-.958-1.664-1.021-7.812-.728-15.68-1.03-22.944 2.401-2.825 1.335-4.855 1.977-6.971-.62-1.406-1.724-3.341-2.051-5.381-2.144-1.832-.083-3.666-.048-5.499-.056-9.97-.04-19.932 1.041-29.913.047-3.39-.338-6.406.49-9.147 3.012-3.243 2.984-10.574 2.8-13.93-.27-2.314-2.115-4.761-2.894-7.691-2.774-22.777.936-45.596-.97-68.358 1.002-1.328.116-2.776-.039-3.895.71-9.364 6.262-19.698 2.314-29.596 2.889-12.678-6.15-26.051-4.233-39.426-3.86-15.132.424-30.31 1.067-45.442-.582-4.31-.47-8.661-.091-13.446-.225-10.055-.816-19.594 1.715-29.239.411-3.074-.415-6.575 2.675-9.354-.525-2.51-2.89.25-6.018.377-9.05.138-3.252-.684-7.24 4.228-8.565 1.51 1.506 1.611 3.109 1.664 5.206.304 5.904.906 6.515 6.106 6.619 1.832.036 3.664.009 5.496.009 133.904 0 267.807 0 401.71-.003 2.665 0 5.33.057 8.448-.158.745-.143 1.035-.214 1.758-.33 5.778 1.545 11.336.434 16.742 1.252 2.902.44 3.803-1.113 3.9-3.738.284-7.675-.103-15.322-1.69-22.82-2.691-12.716-6.24-25.181-12.502-37.11-1.685-4.028-3.098-7.768-5.445-11.449a17.196 17.196 0 0 1-.783-1.164c-8.63-14.414-17.825-27.94-30.72-38.99a7.347 7.347 0 0 1-1.001-.976c-4.073-5.916-9.641-9.836-14.784-14.637a23.976 23.976 0 0 1-1.216-.6 7.404 7.404 0 0 1-1.07-.78c-1.136-1.454-2.542-2.057-3.878-3.226-.345-.366-.476-.516-.8-.885a6.98 6.98 0 0 0-1.31-1.127 23.9 23.9 0 0 1-.986-.626l-1.213-.864c-1.33-.921-2.084-1.62-3.291-2.209-.47-.24-.657-.34-1.115-.612-.444-.299-.615-.426-1.27-.975-1.092-.998-1.685-1.594-2.645-2.235a286.18 286.18 0 0 0-1.053-.655l-1.585-.958a9.385 9.385 0 0 1-.993-.726c-.956-.91-1.758-1.51-2.947-2.083-.805-.413-1.326-.716-2.12-1.14a19.994 19.994 0 0 1-1.265-.785c-1.012-.631-1.551-.888-2.416-1.193a8.354 8.354 0 0 1-1.157-.562 24.04 24.04 0 0 1-1.387-.973c-14.575-8.378-28.957-15.476-45.21-19.07-7.468-2.123-14.285-5.195-22.174-5.906-14.362-3.445-28.578-3.973-43.268-4.082a18.105 18.105 0 0 1-2.509-.56c-2.085-.325-3.771-.284-5.885-.255-4.2.002-7.972-.01-12.178.014-1.869.014-3.305-.09-5.166.07-4.34.595-8.256 1.127-12.644.91-.964.011-1.513.014-2.465.028-4.061.67-7.765.914-11.84 1.357-.896.244-1.417.346-2.335.471-22.405 2.618-43.016 9.804-63.005 19.042-2.402 1.11-4.603 2.692-7.67 3.088-1.161-.47-1.411-1.257-1.742-2.029-1.784-4.153-2.098-4.206-5.043-.821-.546.628-.988 1.386-1.735 1.765-2.405 1.222-4.773.85-6.237-1.296-1.642-2.405.223-3.919 2.124-5.239 4.887-3.392 5.53-5.243 3.993-11.213 18.986-10.967 39.507-17.315 60.88-22.804-6.851-7.387-12.572-14.867-15.424-24.16-3.178-10.356-4.311-20.933-2.05-31.511 4.64-21.697 24.059-32.745 46.096-26.402 2.912.839 4.57.43 6.192-1.963 12.327-18.202 41.957-19.352 55.998.306 1.853 2.594 3.426 2.951 6.455 1.963 20.935-6.828 40.945 4.502 44.925 25.629 2.036 13.915.404 26.885-5.9 39.59-.113.41.077.53.042.636-1.689 1.193-2.27 2.93-3 4.98-.181.291-.214.228-.179.234-.59.503-1.125 1.089-1.72 1.99-.093.283-.113.131-.042.159-.343-.096-.584.057-.47.65-.932 3.036-3.393 4.887-5.584 7.673 7.3 2.068 14.438 3.804 21.39 6.103 61.985 20.497 110.332 57.837 141.253 115.995 12.391 23.307 20.091 48.192 19.09 75.041-.148 3.971 1.228 4.994 4.816 6.094 17.411 5.34 28.388 17.395 31.977 34.987 3.72 18.24-2.287 33.783-16.685 45.821-5.972 4.993-12.964 7.998-20.71 10.25-1.546 10.257-.6 20.33-.59 30.789z"/><path fill="#5A6886" d="M321.25 514.696c-4.58.301-8.912.308-13.243.29-1.366-.006-2.806-.04-2.845-1.941-.04-1.903 1.362-2.003 2.754-2.033 2.662-.058 5.335.022 7.98-.217 1.039-.094 2.52-.458 2.568-1.902.05-1.507-1.292-1.887-2.468-1.83-4.233.2-8.643-1.086-12.542 1.895-2.76 2.111-6.308 1.463-9.193.875-5.956-1.215-12.594-1.002-17.172-6.21-.758-.863-2.093-2.182-2.905-1.318-2.814 2.995-4.593-.045-6.98-1.061-.148-1.334-.082-2.396.084-3.846 2.37-4.255 1.21-8.51 1.312-12.573.258-10.187 2.335-19.928 5.862-29.466 2.006-5.427 3.53-11.046 4.298-17.23.152-.78.182-1.176.29-1.86.222-.47.365-.652.705-1.122 15-36.222 38.823-65.165 69.382-89.213 1.383-.55 2.525-.887 3.26-2.083-.12-.333.027-.45.104-.505 2.08-.362 3.57-1.578 5.274-3.069 1.024-1.211 1.806-2.201 2.906-3.232.937-.061 1.473-.28 2.089-.955.35-.515.534-.783.971-1.044 1.723.996 2.351 2.528 2.963 4.097.585 1.5.224 3.38 2.455 5.055-3.239-8.052 1.42-11.89 6.799-15.376.98-.635 1.807-1.469 2.824-2.552 1.243-1.006 2.346-1.694 3.777-2.438.704.019 1.055-.04 1.507-.503 1.213-.863 2.294-1.48 3.693-2.122 4.267 4.62 3.095 9.49-2.616 12.257-1.312.636-2.957 1.097-2.953 2.939.003 1.678 1.538 2.059 2.75 2.39 1.757.48 3.293.063 3.948-1.928.711-2.16 1.757-4.323 4.43-3.505 2.65.81 2.863 3.33 2.677 6.166-3.601 4.686-8.961 6.171-13.857 8.995-1.28.33-2.402.087-3.308 1.29-.314.424-.444.594-.8 1.003-5.528 4.085-10.614 8.23-16.43 11.91-.669.323-1.04.516-1.649.907-.564.43-.896.66-1.51.997-.99.416-1.747.618-2.646 1.202-.361.32-.5.457-.845.8-.644.59-1.121.928-1.667 1.62-.28.407-.392.572-.665.99-.375.6-.588.947-.96 1.568-.75 1.188-1.514 1.937-2.66 2.769-.46.305-.65.421-1.133.7-.496.262-.698.362-1.21.6-4.264 1.862-6.607 5.223-9.1 8.892-.293.464-.41.647-.717 1.09-.324.42-.46.581-.809.964-.362.358-.51.494-.88.825-.508.45-.79.71-1.252 1.182-.427.483-.672.757-1.087 1.239-.514.678-.59 1.213-.633 2.076-5.863 8.475-12.55 16.008-17.626 25.093-.297.47-.42.653-.73 1.103-.817 1.12-1.334 2.033-1.74 3.348a8.687 8.687 0 0 1-.478 1.134c-.614.906-1.17 1.481-1.685 2.447a7.251 7.251 0 0 1-.656.99c-.621.651-1.048 1.076-1.532 1.86-1.205 2.26-2.143 4.294-3.013 6.76-7.513 14.726-12.518 29.856-14.422 45.953-.272 2.307-.539 4.599-2.053 6.908-3.504 1.487-2.976 4.4-3.216 6.9-.247 2.578.522 5.296-1.472 7.58-.716.82-.598 1.93.374 2.601 1.395.963 3.075 1.867 4.549.565 2.245-1.985 4.507-1.42 6.95-.755 5.62 1.532 11.095-1.102 16.701-.666 2.63.205 5.29.036 8.405.037 3.894 3.653 3.794 7.461.717 11.693z"/><path fill="#675E79" d="M669.638 786.706c3.87 2.39 7.713.829 11.383 1.276 1.776.216 3.573.258 5.666.66-1.978.656-4.26 1.356-6.543 1.357-71.397.037-142.793.007-214.652-.081 1.119-3.864 4.958-1.34 7.799-2.975 1.265-.275 2.093-.412 2.924-.397 13.646.242 27.28-1.25 40.884-.907 12.268.31 24.572.336 36.808.346 11.077.009 22.302-.828 33.314-.074 14.98 1.025 29.834-1.293 44.836-.028 9.82.828 19.905-.546 29.883-.427 2.48.03 5.014-.264 7.698 1.25zM322.819 785.39c3.076-1.862 5.375 2.845 8.95.91.733-.868 1.39-1.075 2.484-1.042.798.185 1.23.363 1.95.732 1.335.73 2.456.81 3.96.764 1.107-.046 1.855-.051 3.002-.087.95-.033 1.502-.05 2.488-.096 11.1.463 21.676-1.675 32.345-1.1 1.827.099 3.665-.015 5.922.49 1.704.693 2.446 1.615 2.291 3.454-18.372.588-36.562 1.55-54.685-.425-2.965-.323-5.862-1.656-8.707-3.6z"/><path fill="#5D6683" d="M278.588 437.966c2.035 2.5.98 5.751.123 7.893-1.679 4.202-1.547 8.855-4.497 12.882-2.717 3.71-1.148 9.26-3.163 13.72-2.929 6.479-1.155 13.32-1.1 20.03.012 1.604 1.005 3.871-2.175 4.49-1.222-20.407 2.846-39.934 10.812-59.015z"/><path fill="#675E79" d="M456.922 789.428c-20.952.487-41.963.536-63.436.514.996-3.725 4.598-1.48 7.334-2.864 6.061-.547 11.722-.786 17.783-1.259 1.518.204 2.618.346 4.159.193 7.955.943 15.547.16 23.525.84 3.663 1.501 7.57-.384 10.635 2.576z"/><path fill="#5D6683" d="M378.575 326c2.003 1.294.537 1.747-.327 2.43-2.056 1.627-4.064 3.316-6.124 4.937-3.162 2.488-4.1 5.392-1.966 9.056.635 1.09 1.501 2.542-.348 3.309-1.78.737-2.98-.43-3.32-1.982-.597-2.725-1.113-5.447-2.45-8.324 4.7-3.375 9.443-6.377 14.535-9.427zM457.425 789.926c-3.365-2.094-6.85-.027-10.146-1.643-.368-2.222 1.092-3.021 2.494-3.19 7.836-.95 15.66-1.306 23.188 2.44-2.127 2.575-5.014.69-7.645 2.061-2.673.301-5.06.347-7.891.332z"/><path fill="#45475C" d="M585.4 282.42c-.492-1.36-.156-2.762.501-4.155 5.23-11.095 5.81-22.818 4.872-35.029 3.16 13.464 1.296 26.542-5.372 39.184z"/><path fill="#5D6683" d="M400.974 787.525c-2.142 2.588-5.04.686-7.667 2.084-2.333.298-4.382.335-6.864.302-.692-.824-.95-1.577-1.332-2.608.536-3.343 3.131-2.689 5.074-2.705 3.737-.033 7.742-.796 10.789 2.927z"/><path fill="#675E79" d="M689.332 788.399c-.167-.622-.016-1.772.22-1.79 6.845-.51 12.19-5.696 19.261-5.819-5.878 3.65-11.956 7.064-19.48 7.609z"/><path fill="#45475C" d="M755.07 623.521c-1.996-1.704-1.027-4.313-.998-6.676.098-7.759-.594-15.533.671-23.557.348 9.738.383 19.756.327 30.233z"/><path fill="#5D6683" d="M357.663 340.033c-.029 2.802-2.005 3.504-4.74 3.461.692-2.076 2.343-3.062 4.74-3.46z"/><path fill="#45475C" d="M790.9 666.488c-1.69-2.891-.836-6.357-.36-10.097.311 3.012.375 6.33.36 10.097zM582.311 287.889c-.324-1.894-.486-4.034 2.489-4.926-.484 1.546-1.348 3.14-2.489 4.926z"/><path fill="#5D6683" d="M352.006 343.643c1.312 2.067-.095 2.251-2.127 2.24.332-.728 1.095-1.421 2.127-2.24zM383.927 323.085c.796.445 1.072.996.4 1.449-.225.152-.77-.168-1.304-.515.12-.473.378-.702.904-.934z"/><path fill="#45475C" d="M580.513 290.193c-.494-.935-.332-1.782 1.208-2.128-.072.651-.496 1.338-1.208 2.128z"/><path fill="#5D6683" d="M362.675 335.954c.133.814.338 2.061-1.493 1.28.29-.543.76-.857 1.493-1.28zM279.698 434.945c.213.249.073.534-.368.904-.097-.184.008-.501.368-.904z"/><path fill="#45475C" d="M580.13 290.814c-.297-.035-.451-.244-.605-.453.127-.058.254-.117.602-.168.22.007.144.448.003.621z"/><path fill="#FEBECC" d="M714.257 498.793c-.193.36-.565.436-.748.386-1.794.583-3.478.292-5.127.292-138.033.014-276.066.018-414.099-.027-2.468 0-6.212 1.437-5.769-3.988-.013-.763-.14-1.234.038-1.407 4.495-4.377 5.916-9.44 3.692-15.445-.259-.698.17-1.639.402-2.437.357-1.235.343-2.993 1.99-3.077 1.373-.07 2.254 1.206 2.95 2.407.564.973.32 2.367 1.918 3.184 2.029-3.722 1.506-7.996 2.596-11.86.924-3.275 2.144-6.16 4.265-8.86 6.957-8.856 12.092-18.992 20.024-27.238 4.987-5.184 10.011-10.245 15.79-14.45 3.042-2.214 4.955-4.79 5.788-8.352.767-3.282 2.138-6.343 4.138-9.028 1.911-2.565 4.28-2.28 5.9.497.333.572.467 1.247.765 1.843 3.556 7.111 10.373 9.79 18.472 7.263 4.474-1.396 7.867-8.538 6.966-15.232-.326-1.334-.404-2.329-.497-3.696.212-3.598-1.685-6.028-3.113-8.628-2.22-4.04-1.665-6.42 2.462-7.78 4.522-1.49 7.937-4.034 10.222-8.172.32-.579.674-1.284 1.234-1.544 8.148-3.779 13.898-11.033 21.962-14.988 5.63-2.761 11.4-5.489 15.498-10.565.643-.796 1.335-1.576 2.34-1.768 7.622-1.454 13.865-6.203 21.026-8.753 1.911-.68 3.774-1.773 4.91-3.318 2.287-3.11 5.265-4.716 9.245-5.56 1.031-.415 1.754-.554 2.845-.692 1.781-.124 3.22-.135 4.791-1.157 1.316-.443 2.305-.65 3.729-.63 1.751-.01 3.106-.005 4.88-.012 3.544-.178 6.633-.715 10.19-.945 18.18-.356 35.9.222 53.545 2.084 4.742.5 9.579.806 14.596 2.295 1.188.587 1.477 1.3 1.28 2.18-1.077 4.835-1.083 4.834 4.264 5.517-1.447-1.746-3.197-3.065-3.056-5.67.277-.534.451-.713.98-1.024 2.864.005 5.255.65 7.617 1.478.782.275 1.984.295 2.194.993 1.071 3.565 2.274 6.85 6.001 8.688.842.415.28 2.163-.829 2.951-.686.488-1.472.771-2.246 1.07-7.36 2.836-11.254 9.166-15.232 15.331-1.04 1.613-2.019 3.144-3.866 3.63-4.74 1.246-9.568 1.139-14.329.19-2.326-.462-3.335-2.517-4.205-4.584-.936-2.226-2.172-2.537-3.261-.102-.766 1.71-1.51 3.602-3.377 4.104-4.373 1.177-4.22 4.379-4.808 8.023-1.794 11.117 1.648 21.743 2.226 32.613.093 1.746.703 3.23 2.13 4.325.659.506 1.233 1.161 1.933 1.567 1.89 1.097 1.725 5.987 3.957 4.243 2.26-1.765 3.927-5.698 2.876-9.469-.67-2.404-1.418-4.791-1.576-7.303-.529-8.385 2.245-15.393 6.534-22.776 4.11-7.078 9.202-7.057 15.384-6.655 4.42.287 6.055 2.075 6.569 6.602.661 5.828 5.341 10.315 11.214 10.213 4.39-.076 9.787 1.55 11.616-5.365.56-1.113 1.162-1.61 2.396-1.818 5.969 2.6 8.56 9.548 6.028 14.92-.98 2.077-2.715 2.761-4.8 3.033-4.575.596-8.994 1.416-10.336 6.917-.19.777-.9 1.58-1.656 1.79-6.413 1.794-5.911 7.148-6.312 12.048-.041.496-.012.997-.02 1.497-.165 8.755-1.11 9.756-9.847 9.74-3.688-.005-7.29.527-10.903 1.108-2.303.37-3.283 1.813-2.565 3.91 1.948 5.686 1.112 11.537 1.317 17.327.06 1.658-.447 3.826.775 4.809 5.207 4.186 4.228 10.007 4.198 15.74 6.12-3.557 8.179-2.59 8.363 3.794.108 3.746 2.043 4.772 5.187 3.905 3.504-.968 6.802-1.284 10.133.577 1.056.59 2.808 1.38 3.366-.413.48-1.543-1.379-1.51-2.363-1.91-1.095-.446-2.223-.776-2.442-2.53 1.484-2.302 3.628-1.88 5.558-1.936 11.567-.337 15.727-10.265 15.04-16.92-.907-8.78-9.596-14.573-18.59-12.834-1.77.342-3.532 1.129-5.617-.043-.502-1.19-.301-2.069.448-2.512 5.434-3.214 11.782-6.25 17.328-2.973 4.37 2.582 9.177 5.415 10.653 12.568 2.01 9.748-.874 16.753-6.131 23.944-2.218 3.034-1.167 5.756 2.614 6.768 5.479 1.468 11.036 2.662 16.757 1.231 3.76-.94 7.524-1.273 11.361-.329 3.198.787 5.247-.35 6.71-3.517 1.912-4.145 5.813-4.57 8.605-.89 1.96 2.581 4.15 3.698 7.21 3.396 9.235-.912 18.192 1.679 27.318 2.141 2.749.14 4.94 1.254 5.097 4.385.17 3.42-2.147 4.763-5.037 5.017-6.477.569-12.982.127-19.474.255-.796.016-1.63-.146-2.352.711 8.973-.006 18.038 2.132 26.862-1.355 3.715-1.468 7.515-1.197 11.334-.952 2.29.147 3.556 1.517 4.198 3.654.729 2.426.927 4.899.882 8.012.766-1.817.863-3.254 1.352-4.559.604-1.608 1.319-3.333 3.313-3.207 1.83.115 1.964 1.94 2.442 3.355.967 2.86.53 5.972 1.805 9.173.153.656.168.928-.01 1.561z"/><path fill="#FEBBC9" d="M584.823 463.825c.45 2.444 2.134 2.152 3.6 2.177 2.46.042 3.923 1.144 3.394 3.704-.564 2.724-3.382 3.058-4.712 2.003-4.196-3.327-8.148-2.23-12.61-.906-3.614 1.073-5.998-1.675-5.333-5.583.327-1.921 1.712-4.07-1.159-4.972-2.392-.753-3.797.495-4.065 3-.099.928-.633 1.616-1.614 1.483-.966-.13-1.273-.974-1.286-1.856-.034-2.165.005-4.332-.046-6.496-.078-3.321 1.023-6.999-3.575-8.668-1.683-.611-1.325-2.824-1.439-4.495-.47-6.89 1.247-13.906-1.767-20.681-1.073-2.414.286-4.337 3.492-4.59 4.953-.39 9.873-1.387 14.864-.92 3.925.368 5.536-1.438 5.431-5.18-.12-4.323-.06-8.63.998-12.863.237-.948.315-2.687.674-2.743 7.955-1.25 9.087-14.126 19.407-11.356 1.5.402 2.2-1.283 2.642-2.544 1.288-3.675-1.01-10.36-4.528-13.076-1.432-1.716-.493-3.133-.08-4.504 1.106-3.67-.939-5.319-3.992-6.174-3.203-.898-5.978.656-6.58 3.622-.686 3.39.88 5.416 4.137 6.266 1.28.334 2.663.286 4.076 1.283.969 3.874-.79 6.622-4.102 6.696-5.977.133-12.292 3.234-17.602-3.943-2.14-2.893-3.326-4.824-3.087-8.066.047-.634-.026-1.436-.377-1.915-3.524-4.803-8.613-1.835-12.97-2.436-2.678-.369-4.297 1.329-4.617 4.109-.092.798-.14 1.836-.64 2.317-9.177 8.826-8.814 19.209-5.016 30.157.399 1.149.98 2.369-.26 3.124-2.09 1.27-2.081 3.19-2.134 5.217-.045 1.733-.956 2.81-2.76 2.899-1.751.085-3.113-.748-3.062-2.511.082-2.817-1.327-4.274-3.702-5.228-1.301-.523-2.25-1.392-2.37-2.922-1.047-13.382-3.732-26.672-2.103-40.21.243-2.017.799-2.926 2.916-3.105 3.115-.264 5.32-1.604 5.245-5.31-.036-1.764 1.286-2.617 3.044-2.548 1.8.07 2.77 1.115 2.793 2.858.056 4.297 2.658 5.237 6.315 5.083 2.823-.118 5.67.143 8.48-.09 2.78-.23 5.337-1.104 5.26-4.686-.042-2.018 1.226-2.976 2.842-3.655 2.001-.84 2.82-2.192 3.303-4.451.967-4.518 6.425-3.697 8.951-6.616.91-1.052 3.509.153 3.579-1.912.078-2.321-2.209-1.273-3.451-1.722-1.471-.532-3.474-1.799-2.783-2.951 3.438-5.74-2.006-4.778-4.326-5.968-1.27-.651-2.866-.668-4.718-.972-1.045-.186-1.434-.61-1.483-1.541 7.479.506 14.488 2.68 21.74 5.415 3.646 3.618 8.292 4.773 12.35 6.858 6.162 3.165 12.377 6.187 18.436 10.233 2.428 1.076 4.14 2.616 6.303 4.076 1.169.811 2.007 1.512 3.234 2.222 1.17.764 2.025 1.413 3.157 2.232 1.284 1.324 2.566 2.111 4.12 3.098 5.81 5.085 11.457 9.846 17.215 15.034 32.047 31.383 55.185 67.316 62.312 112.127.55 3.451.794 6.938 1.306 10.397.335 2.257.573 4.696-1.75 6.703-4.035-2.409-1.439-6.797-3.274-9.922-.442-.753.228-2.271-1.147-2.384-1.52-.126-1.528 1.318-1.955 2.394-1.104 2.781-.288 6.248-3.08 9.117-1.84-4.268-.196-8.358-1.601-12.127-.774-2.076-1.48-3.057-3.715-2.954-4.09.19-7.971.48-12.083 1.75-8.634 2.665-17.742 1.503-26.663.624-1-.099-2.663-.272-2.516-1.863.18-1.944 1.935-1.454 3.157-1.463 6.996-.048 13.994.016 20.99-.048 2.488-.023 5.354.101 5.487-3.501.14-3.824-2.761-3.306-5.264-3.503-9.9-.778-19.712-2.885-29.723-1.967-2.335.214-3.25-1.308-3.964-3.067-.844-2.079-2.137-3.114-4.56-2.974-2.476.143-2.317 1.945-2.712 3.472-.918 3.554-2.951 4.805-6.637 3.782-4.528-1.258-9.034-.825-13.622.386-6.347 1.675-12.479-.819-18.615-1.97-2.57-.482-3.269-6.537-1.213-8.413 4.765-4.347 6.67-10.034 7.88-16.126.276-1.392-.144-2.247-1.007-3.08-1.324-1.278-1.73-2.722-1.214-4.53 1.175-4.12-.222-6.444-4.724-6.507-.764-.01-1.764.158-1.821-1.086-.26-5.624-4.355-4.609-7.59-3.97-4.19.825-8.969.545-11.874 5.029-.129.519-.31.669-.802.981-7.887 4.037-10.38 11.187-6.914 20.092.433.387.594.556.935 1.024.732 1.85 1.38 3.447 1.66 4.993.471 2.615 2.094 1.95 3.984 1.916.553.056.77.093 1.302.222.913.314 1.496.577 2.383.926.466.233.642.346.995.719z"/><path fill="#FB8199" d="M766.647 531.08c8.334 6.89 8.377 23.194.776 32.089-6.237 7.298-14.148 9.9-23.474 9.892-81.303-.077-162.606-.07-243.91-.068-73.306 0-146.612.02-219.919.043-5.332.002-10.675.16-15.832-2.848-2.973-3.256-7.148-4.884-8.77-9.417-.791-1.282-1.266-2.28-1.689-3.797.68-6.927 6.296-11.323 13.779-11.115 44.975 1.252 89.959.444 134.938.501 113.967.145 227.934.049 341.902.047 3.831 0 7.658.046 11.447-.745 4.232-.884 6.784-3.307 7.44-7.634.377-2.487.783-4.967 3.312-6.949z"/><path fill="#DF8AA3" d="M683.884 625.057c-17.645.007-34.81-.016-51.973.051-2.637.01-4.399-.431-6.112-3.006-4.75-7.138-15.96-6.924-20.822.272-1.439 2.129-2.9 2.795-5.269 2.774-9.997-.087-19.997-.099-29.994-.017-2.377.02-3.796-.702-5.278-2.76-5.403-7.502-15.582-7.347-21.066.28-1.37 1.903-2.739 2.563-4.916 2.556-23.163-.074-46.374.742-69.46-.602-7.619-.444-14.734-.946-22.408.138-9.641 1.361-19.618.297-29.45.384-2.622.023-4.314-.472-5.999-3.037-4.542-6.915-14.713-6.984-20.12-.177-1.929 2.427-3.8 3.197-6.681 3.18-14.83-.088-29.662-.06-44.493.017-2.807.015-4.785-.522-6.718-3.07-5.56-7.332-16.18-6.72-21.557.862-.471.664-.983 1.751-1.565 1.814-6.294.676-12.615.512-18.916.106-1.472-.095-1.256-1.749-1.258-2.87-.012-8.164.088-16.33-.024-24.493-.036-2.65 1.02-3.467 3.526-3.458 13.83.051 27.662.02 41.493-.028 1.62-.005 2.75.483 3.83 1.786 5.669 6.836 12.796 10.215 21.878 9.351 4.128-.392 8.328-.158 12.49-.042 7.87.22 14.435-2.316 18.874-9.038 1.823-2.76 4.403-1.96 6.742-1.963 45.993-.056 91.986-.029 137.979-.046 30.328-.011 60.657-.053 90.985-.125 2.236-.006 4.207.043 5.756 2.096 4.948 6.562 11.478 9.71 19.825 9.192 4.982-.309 10.009-.374 14.99-.095 7.166.402 12.619-2.614 16.89-7.945 1.75-2.183 3.61-3.15 6.342-3.138 12.998.06 25.997.105 38.993-.057 3.324-.041 4.573 1.312 4.485 4.373-.226 7.785-.517 15.568-.679 23.354-.044 2.147-.493 3.522-3.03 3.464-4.164-.096-8.336-.153-12.495.005-2.385.09-2.98-1.757-4.115-3.092-6.185-7.276-15.6-7.175-21.168.65-2.635 3.703-6.006 1.717-9.512 2.354z"/><path fill="#FEA7BB" d="M766.941 530.596c-.932 3.165-2.013 5.946-2.117 9.242-.155 4.923-6.21 8.117-14.423 8.125-31.998.032-63.996.024-95.993.024-126.325-.001-252.649-.02-378.973.05-4.411.003-8.766-1.72-13.27 0-4.032 1.54-7.303 5.378-7.154 9.622-.21 1.034-.697 1.431-1.69 1.484-3.705-5.173-3.748-10.788-2.886-16.881 2.669-2.123 5.638-1.58 8.37-2.037 3.802-.638 7.446-1.545 11.057-3.773 1.168-.46 2.06-.645 3.092-1.323.42-.353.585-.5.994-.882a17.325 17.325 0 0 0 1.883-2.132c.41-.535.577-.757.95-1.363 2.07-7.726 2.07-7.745 9.52-7.745 154.38-.005 308.758 0 463.137-.029 3.042 0 5.975.27 9.245 1.652.467.159.452.066.497.052.015.417.224.58.742.265.675-.02 1.246.209 1.98.704.558.943.883 1.681 1.95 2.13.268.125.21.202.21.154.122.257.316.507.757.865.78.623 1.383 1.082 2.122 1.796z"/><path fill="#566786" d="M321.47 515c-.388-3.742 2.431-7.483-.469-11.61 14.63-.58 29.212 1.29 43.86.633 7.455-.334 14.9.131 22.382-.894 9.256-1.269 18.532 1.262 27.848.912.768-.029 2.146.258 2.242.646 1.217 4.912 5.142 3.136 8.114 3.256 4.99.203 9.997.137 14.993.024 2.745-.063 6.145 1.259 7.154-3.209.244-1.079 2.06-.752 3.203-.749 13.297.035 26.583-2.098 39.85-.892 11.296 1.026 22.497-.817 33.744-.144 2.506.15 4.693-.15 5.96 3.095 1.162 2.978 11.198 2.946 12.49.028 1.143-2.585 3.258-2.95 5.203-2.967 5.123-.041 10.306.386 15.375.46 7.404.107 14.892-.722 22.353-.536 3.677.092 8.32-1.661 9.76 4.163.245.987 2.204 1.072 2.577.363 3.4-6.453 9.83-2.858 14.676-4.399 3.026-.962 6.609-.135 9.94-.194 2.3-.041 4.014-.006 4.503 3.145.399 2.577 9.943 2.925 11.623.338 1.038-1.6 2.01-2.379 3.873-2.486 23.438-1.346 46.9-1.07 70.354-.867 3.557.031 7.66-.263 8.674 5.592.717 4.135 4.702 4.768 8.635 2.68 1.152-.61 2.437-1.198 3.706-1.318 4.14-.391 4.855-2.303 2.824-5.668-1.7-2.815 1.357-4.067 2.08-6.07.65-1.8 2.358-1.272 3.883-.918 1.764.41 3.833.125 5.326.947 3.13 1.725 5.712 3.912 3.941 8.345-.95 2.379 1.11 5.885-1.03 7.584-2.332 1.852-5.787.614-8.742.674-5.996.122-11.998-.043-17.994.073-2.572.05-4.567-.297-5.325-3.216-.905-3.485-3.793-3.668-6.723-3.846-2.922-.177-4.013 1.149-4.596 3.947-.636 3.045-3.4 3.108-6.03 3.1-13.33-.047-26.66-.028-39.99-.016-2.103.002-4.474-.535-4.962 2.666-.183 1.207-1.38 1.28-2.395 1.302-1.499.03-2.999.025-4.498.025L354.47 519c-1.435-2.708.39-3.528 2.4-4.133 1.447-.435 2.968-.309 4.464-.346 8.798-.218 17.575-.06 26.395-.817 10.907-.936 21.908.453 32.872.603 12.3.168 24.594-.698 33.56-.334-13.783-.085-30.903.435-48.025.048-2.703-.061-5.145-.355-7.555-1.915-3.622-2.345-7.66-2.35-11.28.04-2.815 1.858-5.778 2.286-8.99 2.353-8.142.17-16.298-.5-24.87.442-10.797.059-21.15.059-31.972.059z"/><path fill="#546685" d="M401.462 787.997c-5.334-3.218-10.655-1.998-16.184-1.272-13.333-.45-26.307 1.596-39.807 1.271-1.082-.59-1.985-.483-2.798-1.29.17-2.928 2.244-2.73 3.99-3.013 1.608-.26 3.326.283 5.071-.754-.773-2.088-2.634-2.178-4.336-2.447-1.469-.233-2.998-.112-4.412-.67-1.302-.513-2.392-1.306-2.277-2.881.103-1.42 1.338-1.805 2.443-2.134 3.394-1.01 6.898-.713 10.374-.829 2.959-.099 5.967.548 9.174-.734 27.568 1.248 54.894-.13 82.14.951 36.462 1.447 72.907.102 109.347.905 5.744.127 10.836-2.578 16.643-2.217 20.88 1.298 41.807 2.733 62.711 1.931 14.963-.574 29.912-.552 44.864-.896 5.198-.12 10.222 1.105 15.367 1.11 1.436 0 2.688.464 3.012 2.05.332 1.626-.738 2.502-2.043 3.006-3.562 1.376-6.658 4.381-11.041 2.996-.959-.302-2.346-.49-3.19.692-2.222 3.109-2.22 3.11-4.7-.772-.738 3.075-3.206 2.95-5.583 3.753-11.863.697-23.518-.67-35.116 1.187-3.956.633-7.848-.918-11.857-1.05-9.172-.303-18.244 1.634-27.366 1.034-10.035-.66-20.2-1.877-30.077-.628-10.625 1.344-21.118-1.835-31.687.519-3.541.788-7.538-.722-11.33-.76-16.293-.166-32.551 1.633-49.326.945-8.936-1.802-17.403-3.602-26.225-.308-8.288-.104-16.405 1.272-24.815-.66-.87-.02-1.316-.026-2.098-.015-6.368.145-12.33 1.585-18.868.98z"/><path fill="#FB98AD" d="M567.404 239.768c4.445 2.651 4.017 7.058 4.618 10.912.37 2.372-.022 4.862-.164 7.745-3.267-.881-1.994-3.775-2.134-5.988-.215-3.412-1.428-3.969-4.93-4.13-9.71-.447-14.676 4.445-18.77 12.597-3.384 6.74-8.33 12.803-14.758 17.805-1.894.753-3.453 1.337-4.83 2.299-3.809 2.657-7.472 2.321-10.997-.542-1.76-1.43-3.716-2.125-6.006-1.914-5.061.466-6.234 2.818-3.466 7.085.809 1.247 2.072 2.482 1.163 4.032-.901 1.54-2.627 1.206-4.092.994-5.392-.78-10.481 1.885-14.967 1.374 5.885-.453 12.656-.485 19.425-.352 2.092.041 4.419-.386 5.868 2.177-.028.378-.16.395-.187.334-.215.027-.403.116-.858.366-2.014.213-3.762.265-5.94.235-.43-.08-.869-.235-1.095-.179-10.304.453-20.392.8-30.078-2.772-9.688-3.573-16.15-10.53-20.294-20.147-.538-2.269-1.048-4.204-1.754-6.424-.264-.267-.19-.275-.2-.239-.832-4.884-1.115-9.844-.902-14.82.122-2.835.902-4.532 4.605-4 5.421.777 10.965.3 16.864.165 2.29-.49 3.971.166 5.687.83 7.172 2.782 12.109 1.39 17.171-4.451 3.367-3.885 6.316-8.065 9.326-12.21.964-1.328 1.703-2.872 3.81-3.5 4.492-.343 6.647 2.615 8.767 5.328 3.275 4.191 6.49 8.406 10.427 12.023 6.938 6.375 14.299 5.298 18.947-2.817 2.473-4.318 8.46-6.637 13.273-5.001 1.557.529 3.18.98 4.89 2.13.303.221.22.26.206.216.27.327.646.548 1.375.84z"/><path fill="#F88095" d="M728.198 732.853c-2.534 7.92-7.381 13.925-13.052 19.36-12.68 12.15-27.771 17.418-45.338 16.766-13.953-.517-27.941-.11-42.373-.217-2.469-2.508-5-3.535-8.165-3.471-3.096.062-6.14-.556-9.392-1.9-.824-6.432-5.47-7.514-10.323-8.503-2.24-.457-4.612-.74-6.48-2.303-.923-.772-1.671-1.708-1.301-2.99.308-1.067 1.312-1.418 2.29-1.657 1.953-.475 3.95-.3 5.93-.367 8.916-.305 17.871.74 26.75-.72 1.567-.257 3.4-.044 4.742-2.028 2.64-1.52 5.175-1.225 7.648-1.232 13.127-.038 26.255.075 39.382-.049 10.802-.101 18.587-5.343 23.81-14.6 1.412-2.503 2.165-5.218 1.534-8.524-.073-3.277-2.403-3.61-4.407-4.321-1.464-.52-2.867-1.268-2.86-3.024.006-2.03 1.597-3.128 3.279-3.058 4.978.207 7.054-5.316 11.857-5.652 1.643-.115-.978-2.042.14-3.483 2.569-1.736 5.247-.932 8.117-1.47.868-.2 1.368-.257 2.246-.228 2.006.402 3.643.75 5.67.07.618-.109.872-.13 1.513-.13 2.454.364 3.838 1.39 4.025 4.043.057 3.118.042 5.831.023 8.943-2.4 2.84-1.138 5.767-1.221 8.9-.29 1.144-.456 1.92-.887 2.85-1.552 2.09-1.33 4.422-2.12 6.865-.178.329-.225.27-.193.29-.507.404-.548 1.018-.844 1.84z"/><path fill="#FA8EA3" d="M714.005 498.29c2.695-5.514.525-10.895-.299-15.886-4.87-29.485-15.763-56.418-33.962-80.499-8.59-11.365-18.11-21.766-27.71-32.562.216-1.296.527-2.197-.801-2.746-1.548-.64-2.747-1.793-3.753-3.114-.927-1.216-1.638-2.559-.774-4.077.796-1.4 2.198-1.245 3.511-1.034 1.136.182 2.275.329 3.755.602 1.02.37 1.719.548 2.759.816.315.188.27.212.274.187.202.241.425.485.878.845.206.138.132.154.138.116.37.49.957.568 1.75.874.238.166.232.187.242.182.451.512.46 1.154.5 2.09-.464 1.01-1.145 1.482-1.899 2.292-.414.418-.623.622-.836.822-.22.207-.149.147.422-.39.78-.755 1.327-1.329 2.22-1.938 1.643.392 2.999.87 4.521 1.742.285.12.033.294.15.196.277.37.572.717 1.261 1.19.99 2.773 2.387 4.706 4.914 5.709 1.083.43 2.287.971 2.723 2.062 1.424 3.562 4.558 5.057 7.932 6.838.306.164.226.386.282.282.576 3.38 2.336 6.042 5.29 7.966 7.705 5.022 12.65 12.597 17.924 19.8 2.822 3.856 5.45 7.878 8.386 12.08.264.227.208.269.223.237 1.774 3.52 2.632 7.537 5.708 10.766 10.423 19.535 15.549 40.041 15.5 61.923-.011 4.76-1.923 5.976-5.846 5.065-4.866-1.13-9.97 1.306-15.004-1.379-.333-.385-.345-.577-.379-1.058z"/><path fill="#FD889E" d="M609.653 762.746c4.824.246 9.172 1.61 13.706 1.406 2.1-.094 3.86 1.115 3.62 4.133-8.686.435-17.37.497-26.512.464-2.208-1.063-4.029-.876-6.171-.267-19.09.264-37.877.433-56.663.44-42.242.015-84.483-.05-127.182-.19-3.134-5.01-2.743-5.972 2.433-7.09.808-.173 1.947-.024 2.356-.616 3.511-5.084 8.9-5.69 14.496-5.72-.41-2.16-1.798-1.73-2.799-1.853-1.31-.163-2.653.006-3.97-.125-2.442-.242-5.955-.13-6.004-3.054-.056-3.38 3.585-2.405 5.852-2.63 3.503-.347 7.446.937 10.263-3.145 7.35-1.765 14.413-.872 21.84-.745 1.98.866 3.568 1.82 5.64.13 21.312-.587 42.233-.943 63.566.26 3.21 4.117.137 4.996-2.572 5.092-5.82.206-11.558 1.415-17.39 1.24-2.763-.084-4.618.538-5.374 3.765-1.29 5.512-6.143 5.096-10.44 5.319 14-.282 27.925-.37 41.581 3.137 3.176.816 6.276-.03 9.411-.057 7.967-.066 15.935-.495 23.896.6 4.603.633 9.21.415 13.818-.905 5-1.433 10.265-1.419 15.282-.066 3.035.818 5.756 1.01 8.735.011 2.696-.904 5.53-1.217 8.582.466z"/><path fill="#FD8CA4" d="M432.681 744.773c.506 3.489-1.268 4.328-4.055 4.25-3.62-.1-7.247-.024-11.335-.024 1.033 2.93 2.953 2.99 4.898 2.997 2.16.008 4.32-.031 6.48.017 1.616.037 3.797-.276 3.883 2.004.097 2.579-1.915 3.113-4.164 3-1.657-.085-3.33-.1-4.982.02-2.218.163-4.672.68-5.148 3.097-.54 2.747-2.103 3.16-4.243 2.838-4.222-.635-5.256 1.17-4.021 5.283-16.04.416-32.08.464-48.578.4-3.205-1.07-5.995-.731-9.079-.248a19.096 19.096 0 0 1-3.957.187c-1.83-1.167-2.907-2.671-5.046-2.655-2.147.016-3.418-1.266-3.13-3.558.267-2.131 1.712-3.115 3.724-3.403 1.17-.167 2.318.098 3.477.18 1.092.078 2.754.602 2.912-.908.192-1.823-1.657-1.71-2.926-1.85-1.157-.128-2.327-.013-3.479.192-.82.146-1.609.425-2.418.613-4.982 1.16-9.251-.616-9.9-4.094-.486-2.6 3.562-6.496 7.711-7.214 2.744-.474 5.703.128 8.56-1.876 6.033-1.04 11.703-.643 17.343-.558 15.624.235 31.256-.687 46.881.626 4.584.385 9.25-.922 13.925-.67 2.15.115 4.345-.112 6.667 1.354z"/><path fill="#F4D3DE" d="M264.477 677.247c-.949-.462-1.438-.736-2.207-1.022-.467.048-.652.109-1.054-.027-6.424-4.445-10.038-9.79-8.342-17.792 1.38-6.51 5.738-9.726 11.898-11.735 1.638-2.12 3.636-1.074 5.295-1.092 6.143-.067 12.292-.25 18.818.335 1.888 2.504.828 4.688.277 6.925-1.578 6.406 1.353 10.396 7.962 10.644 5.791.218 11.592.022 17.389.077 2.14.02 4.327-.164 6.599 1.31 1.123 3.021-.497 3.956-2.694 4.38-2.125.41-4.3.534-6.448.59-5.323.142-10.927-1.018-14.295 3.725 13.817-.23 28.39-.087 42.963-.098 30.584-.024 61.168-.016 91.752.006 2.643.002 5.333-.283 8.27 1.04.731.84.825 1.452.365 2.476-24.615.657-48.917.469-73.218.482-34.29.02-68.58.078-103.33-.224z"/><path fill="#FBCDD7" d="M384.768 393.23c3.268 8.488-2.127 15.977-10.733 16.961-9.13 1.044-14.374-2.312-17.21-10.69-.739-2.182-2.438-2.072-3.662-.207-1.085 1.653-2.576 3.406-2.753 5.225-.886 9.11-7.892 13.12-14.12 17.942-5.546 4.296-9.275 10.373-14.212 15.264-7.013 6.948-10.154 16.518-16.717 23.864-2.856 3.195-2.884 8.593-3.361 13.188-.137 1.313-.113 2.67-.464 3.924-.372 1.326-1.224 2.419-2.888 2.16-1.544-.238-1.683-1.461-1.616-2.648.117-2.071-.78-3.436-2.599-4.278-1.386 3.92-.993 7.52.568 11.45 1.735 4.369-2.884 5.441-5.635 7.593-.534-.08-.724-.2-1.042-.629-.179-1.711-.228-3.112-.33-4.932 1.692-19.245 6.718-37.126 15.672-54.166 2.989-2.307 4.969-5.391 8.859-6.42 4.711-.348 8.4-2.447 11.257-5.42 8.572-8.922 17.4-17.633 24.938-27.5.402-.527.769-1.074 1.058-2.053.459-1.201.918-1.976 2.183-2.37 1.175.077 1.887-.076 2.315-1.339 1.895-3.426 4.186-5.61 8.472-4.661 1.592 1.886.797 3.304-.273 4.69-3.511 4.547-2.433 9.062.252 13.447 2.538 4.143 6.472 5.812 11.121 4.926 4.806-.916 7.696-4.293 9.3-8.808.5-1.404.55-2.952 1.62-4.512z"/><path fill="#F97D92" d="M530.698 278.216c7.53-8.24 14.765-16.265 19.045-26.398 1.213-2.872 3.001-4.35 6.402-3.903 2.579.339 5.202-.017 7.845-.648 5.759-1.374 6.858-.323 7.014 5.577a41.86 41.86 0 0 0 .515 5.729c-1.048 20.781-16.716 35.506-38.196 36.308-4.804.18-9.62.012-14.892-.095-1.817-1.616-1.496-3.226-.32-4.52 3.828-4.217 7.255-8.868 12.587-12.05z"/><path fill="#FC97AC" d="M346.76 744.778c.027 2.042-1.236 2.376-2.648 2.197-3.593-.453-6.66.389-9.423 2.876-.915.824-2.688.91-2.285 2.634.333 1.422.956 3.014 2.641 3.32 2.188.396 4.314 1.385 6.667-.046 2.526-1.536 5.511-.72 8.29-.67 2.05.038 2.832 1.76 2.782 3.469-.064 2.179-1.845 2.563-3.614 2.38-1.627-.167-3.215-.75-4.84-.87-1.915-.142-3.253.779-3.218 2.871.038 2.236 1.662 2.317 3.166 1.787 3.13-1.102 3.169 1.217 3.701 3.409-.732.394-1.473.46-2.923.248-9.098-1.374-17.22-3.302-24.847-8.013-.373-.085-.363-.256-.395-.177-.669-1.356-2.258-1.122-3.617-1.96-.289-.16-.19-.186-.23-.154-.773-.965-1.657-1.81-2.92-2.67-.288-.105-.292-.172-.265-.192-.027-.376-.194-.67-.729-.956-.256-.058-.074-.115-.154-.062-.27-.67-.911-.693-1.749-.957-.278-.114-.159-.23-.22-.17-1.116-2.568-2.176-5.214-4.79-6.73-3.085-1.789-3.48-4.16-1.7-7.095-1.085.278-1.841 1.312-3.381 1.32-.348-.036-.422-.24-.343-.314-.007-.46-.197-.786-.76-1.154-.273-.1-.682-.311-.755-.53.55-2.375-1.016-3.796-1.835-5.473-1.641-3.358-3.27-6.724-3.292-10.926.115-.999.313-1.634.455-2.603-.01-1.248-.635-1.915-1.12-3.031-.142-.847-.068-1.336.324-2.135 8.81 3.121 18.173 1.052 27.191 3.755 1.594 2.152 1.442 4.402 1.863 6.49 2.382 11.795 9.438 18.129 21.352 19.063 1.162.091 2.318.166 3.62 1.07z"/><path fill="#F9CCD8" d="M470.129 318.667c-.405.704-.7 1.482-.954 1.47-4.262-.22-5.776 3.797-8.725 5.512-7.723 4.493-15.6 8.798-24.27 11.213-1.765.491-2.497 1.318-3.651 2.571-4.417 4.796-10.348 7.523-16.044 10.507-.137.072-.383-.021-.484.069-7.23 6.444-16.854 9.804-22.904 17.763-2.337 3.075-5.063 5.486-9.039 6.28-4.039.805-4.572 2.647-2.39 6.205 1.516 2.475 3.49 4.852 3.273 8.46-1.28 1.234-2.196.484-2.995-.336-2.815-2.893-6.386-4.357-10.474-5.654-2.012-1.647-3.468-3.293-4.008-5.915.144-.589.255-.809.66-1.25 3.347-.88 5.082-3.153 7.33-5.117 7.626-6.665 12.466-16.183 22.186-20.776 4.898-2.314 8.708-6.569 12.176-10.858 1.359-1.681 2.676-3.392 4.97-4.6 5.44-.909 9.04-4.789 13.61-6.62 12.226-4.899 24.946-7.977 38.264-10.155.768-.285 1.218-.376 2.013-.427 1.018.237 1.403.705 1.456 1.658z"/><path fill="#E6BBCF" d="M758.96 524.473c-8.559-1.045-17.372-.468-26.157-.47-148.255-.027-296.509.002-444.763-.062-5.056-.002-9.883-.59-9.516 6.77.043.848-.704 1.872-2.21 2.19-1.736-3.23-.634-6.627-.667-10.276a2329.83 2329.83 0 0 1 54.691-.64c138.31-.018 276.618-.008 414.928.058 4.556.002 9.398-1.09 13.693 2.43z"/><path fill="#FBD2DC" d="M758.544 647.309c2.868-.524 3.898 1.388 5.35 3.202 3.155 7.207.449 13.168-3.163 18.88-1.409 2.228-3.268 4.165-5.668 6.115-8.95.648-17.531.763-26.463-.176-2.02-2.087-3.924-3.605-6.157-4.788-2.03-1.075-4.186-2.241-3.696-5.494 1.561-1.398 3.306-1.358 4.833-1.946 4.014-1.546 5.394-3.938 4.637-8.068-1.155-6.294-1.152-6.284 4.817-7.937 1.263-.35 2.588-.546 4.093-1.414 2.522-.198 4.674-.162 7.23-.117 4.681 2.05 9.472.363 14.187 1.743z"/><path fill="#E5A3BC" d="M293.99 720.71c-.691 4.819 1.374 8.534 3.564 12.159 1 1.654 2.25 3.125.924 5.347-6.168-8.421-7.92-18.226-8.393-28.214-.571-12.076-.288-12.114 11.582-12.115 141.578-.007 283.157-.008 424.736.001 1.492 0 2.984.153 4.878.458.089.854-.417 1.154-1.595 1.128-13.142.609-25.817 1.006-38.936 1.107-.708.174-.982.266-1.67.46-2.567.222-4.618 1.233-7.189.728-.562-.251-.766-.387-1.16-.814-8.48-.994-16.784-.416-25.512-.495-2.236.082-4.041.05-6.316.03-24.47-.134-48.468-.075-72.955-.04-1.79.205-3.097.136-4.893.07-43.225-.191-85.96-.077-129.174-.095-47.04.268-93.602.054-140.163.132-7.512.012-8.663 1.167-8.601 8.622.013 1.663.209 3.32-.205 5.408.073.893.075 1.327.083 2.087.308.61.56.932.832 1.597.146.908.153 1.52.164 2.439z"/><path fill="#45475C" d="M745.435 646.528c-2.812-.256-5.192-.32-8.006-.274-4.625 1.434-8.962 1.36-13.274 1.36-98.346.017-196.692.011-295.038.022-2.664 0-5.32-.21-8.478-.18-26.742.345-52.99.069-79.238.149-11.463.035-22.927-.008-34.87.019a41.678 41.678 0 0 1-1.891-.052c-5.292-.541-10.135.7-15.274-.5-7.993-1.474-15.702-.72-23.862-.655.62-2.218 2.714-1.359 4.391-1.36 94.26-.05 188.52-.06 282.78-.062 65.449-.002 130.898.008 196.347.037 2.142.001 4.283.273 6.713.724-2.998 2.057-6.46 1.085-10.3.772z"/><path fill="#615C76" d="M264.315 677.347c55.565-.314 111.429-.338 167.292-.365 2.826-.002 5.653-.036 8.94-.141 2.516-1.606 4.912-1.223 7.206-1.23 12.96-.043 25.92-.007 39.365-.03 3.05.013 5.616.04 8.664.004 16.292.02 32.103.01 48.397-.003 3.063.012 5.642.038 8.71 0 51.132.02 101.776.005 152.904 0 2.076 0 3.668.034 5.732.015 3.29.013 6.11.033 9.405-.01 11.412.764 22.4-.56 33.692 1.144-1.306 1.976-3.425 1.236-5.336 1.236-160.077.036-320.155.034-480.233.018-1.48 0-2.96-.227-4.738-.638z"/><path fill="#566786" d="M362.531 773c-.001 2.768-2.2 1.873-3.857 1.983-4.748.315-9.585-.71-14.242.95-1.054.376-3.167-.598-2.81 1.607.248 1.538 1.994 1.45 3.323 1.45 2.794.001 5.602-.304 7.936 1.896.963.907 2.373 1.47 1.753 3.087-.538 1.405-1.96.827-3.034 1.037-2.789.544-5.921-1.311-8.51 1.6.085.56.26.726.17 1.139-1.014.246-1.765.245-2.892.241-1.044-.723-1.94-.432-3.05-.617-.746-.516-1.115-1.036-2.029-1.31a73.559 73.559 0 0 0-2.906-.04c-2.572-5.184-8.156-2.751-11.715-4.975-1.202-.751-2.883-.739-3.611-2.689.183-2.46 4.24-.709 3.703-4.1 2.398-2.073-1.217-5.812 2.358-7.01 2.872-.961 4.91 1.581 7.248 2.523 10.312 4.152 21.04 3.127 32.165 3.228z"/><path fill="#FED6E3" d="M288.122 492.49c.353-.331.57-.14.812.325-.773 5.027 1.246 6.288 6.04 6.284 137.289-.122 274.578-.095 411.867-.089 1.833 0 3.665.029 5.992.081-1.1 1.9-3.253 1.04-5.132 1.04-130.974.04-261.947.028-392.92.032-6.498 0-12.997.195-19.494.141-8.356-.069-7.264 1.547-7.165-7.815z"/><path fill="#F2DFEA" d="M566.01 238.603c-1.63-.19-3.36-.77-5.123-1.222-5.335-1.368-10.132.863-12.559 5.79-3.572 7.248-13.01 8.825-19.443 3.163-4.125-3.631-7.63-7.825-10.839-12.294-1.912-2.664-3.76-5.538-7.715-6.388-.796-3.423 1.793-4.161 4.342-5.364 4.102.281 6.36 3.045 8.598 5.649 2.909 3.38 5.394 7.13 8.361 10.453 3.986 4.465 7.53 4.865 12.832 2.013 3.323-1.787 6.366-3.974 10.314-4.664 4.232-.741 7.834-.19 11.231 2.864z"/><path fill="#F7F7FC" d="M275.48 522.233c1.407 3.343 1.87 6.622.477 10.313-.016.394.009.417.001.415-.434.627-.788 1.322-1.758 1.834-.24.158-.201.203-.224.184-.441.627-.817 1.31-1.797 1.823-6.52 3.869-13.308 5.505-21.064 5.118-.072-9.196 5.88-16.982 14.385-20.009 3.355-1.193 6.415-.776 9.98.322z"/><path fill="#F7EEF4" d="M514.612 221.995c-1.254 1.754-2.867 3.389-4.564 5.3-4.892 4.462-7.445 10.396-11.71 15.07-7.843 8.591-11.76 9.656-22.898 4.508-.712-.416-.9-.818-.908-1.631.82-1.695.32-3.617 2.254-4.451 9.52 2.543 11.519 1.804 17.282-5.804 2.304-3.042 4.726-6.001 7.203-8.905 3.44-4.032 7.798-5.449 13.341-4.087z"/><path fill="#FA8EA3" d="M530.613 278c-3.263 3.959-6.79 8.037-10.605 11.825-1.275 1.266-2.15 2.369-2.029 4.507-1.346.264-2.684.172-4.333-.005-1.696-1.79-3.636-1.294-5.407-1.305-6.97-.043-13.94.002-20.91-.044-1.562-.01-3.233.373-4.692-1.14 8.022-.007 15.517-4.326 23.793-1.98.33-2.826-1.942-3.579-3.105-5.001-2.278-2.787-1.61-5.22 1.317-6.452 3.958-1.666 8.065-2.946 11.822 1.18 2.26 2.484 5.388 3.16 8.45.861 1.606-1.205 3.208-2.37 5.7-2.446z"/><path fill="#5A6886" d="M352.995 515.349c.488-3.139 2.712-2.303 4.372-2.318 7.658-.07 15.318-.043 22.977-.024 2.344.005 4.37.012 6.056-2.398 1.79-2.557 11.42-2.548 13.21.013 1.69 2.416 3.724 2.385 6.063 2.384 17.815-.01 35.631-.027 53.447.027 1.724.006 3.612-.629 5.353.788-.93 1.86-2.618 1.092-3.904 1.145-10.942.454-21.933-.873-32.84 1.01-4.507.779-8.868-.893-13.353-1.04-18.63-.611-37.198 1.51-55.818 1.071-1.848-.044-3.771-.148-4.503 2.6-3.71.308.079-2.055-1.06-3.258z"/><path fill="#F2DFEA" d="M466.566 317.194c-.13 2.503-2.15 1.487-3.635 1.815-7.585 1.679-15.419 2.14-22.564 5.931-2.557 1.358-5.905 1.362-8.912 2.535-5.439 2.121-9.333 7.423-16.072 7.478-7.485 2.172-12.951 7.782-20.301 9.4-.61.134-1.12.711-1.474 1.272-2.366 3.759-4.352 7.89-9.443 9.423-3.606.592-5.469-1.231-6.33-4.475.23-.318.152-.476.143-.563.683-.968 1.399-1.808 3.003-1.775 5.013-2.714 9.71-5.332 14.711-8.13 19.736-9.701 39.74-17.6 61.153-21.453 3.093-.557 6.205-1.007 9.72-1.458z"/><path fill="#F294AC" d="M654.122 359.67c-.278.32-.484.256-.603.331-2.01 1.269-5.604-3.172-6.025.717-.3 2.78 2.936 5.284 6.613 5.336.443.007.882.309 1.37.49-.078 1.992-2.08 1.286-3.18 2.326-6.558-3.918-11.76-9.194-17.293-14.494-.665-1.938-2.333-2.104-3.778-3.128-1.397-.248-2.3-.725-3.092-1.963-.913-.99-1.483-1.923-2.824-2.308-2.856-.058-3.89-2.605-6.166-3.708-.316-3.938 1.723-4.263 4.62-3.46 3.523.975 6.22 3.587 10 4.91.36.157.301.265.307.204.146.25.343.52.835.84.235.095.123.092.17.06.552 1.043 1.606.547 2.691.965.29.174.24.213.247.182.204.246.434.492.903.853.736.3 1.263.456 1.946.843 1.08 1.474 2.54 1.991 3.985 3.064.257.19.194.25.194.206.357.511.963.57 1.78.863.258.145.175.172.204.14.947 1.182 2.06 2.147 3.787 2.838.279.157.214.21.219.168.183.246.394.505.866.851.223.118.19.036.231.021.442 1.069 1.876 1.315 1.993 2.854z"/><path fill="#E5A3BC" d="M633.963 344.577c-3.03.645-5.178-1.698-7.837-2.678-2.026-.745-4.918-3.759-6.904.897-1.234.004-2.437.105-3.115-.444-7.585-6.137-16.766-9.255-25.327-13.538-1.332-.667-2.889-1.092-2.777-3.427 6.683.287 12.694 3.131 18.748 5.648 9.275 3.855 18.654 7.568 27.212 13.542z"/><path fill="#E6BBCF" d="M755.227 675.247c.841-3.44 3.956-5.143 5.543-7.975 2.708-4.832 3.673-10.052 3.277-16.02 2.89-.073 3.905 2.307 5.443 4.603 4.71 5.722 1.692 10.582-1.357 15.731-.322.265-.193.37-.237.3-.504.988-1.58 1.226-2.712 1.902-.261.164-.188.197-.208.162-1.147 1.276-2.348 2.46-4.58 2.374-.526-.163-.709-.203-1.165-.31-1.315-1.049-2.638.075-4.004-.767z"/><path fill="#FEBBC9" d="M475.057 244.661c.041.747.033 1.14.024 1.825-5.984 2.893-12.332 1.705-18.34 1.142-3.63-.34-3.7.765-3.74 3.145-.074 4.45-.027 8.903-.041 13.827-2.31-5.56-1.945-11.838-1.417-18.387.904-.619.963-1.23 1.202-2.082.097-.283.022-.27.014-.308 2.893-.691 5.158-1.937 7.337-4.32 4.309-4.714 12.24-1.932 14.961 5.158z"/><path fill="#F294AC" d="M714.034 422.606c-4.767-1.93-6.12-7.044-9.097-10.819-5.6-7.097-10.403-14.846-18.19-20.03-2.717-1.81-6.257-3.776-4.595-8.63 4.858 1.478 7.453 5.758 10.563 9.284 8.11 9.193 15.447 18.997 21.32 30.195z"/><path fill="#F9CCD8" d="M565.648 319.035c.638.584.899 1.032 1.254 1.721L567 321c-.389.376-.85.527-1.69.221-5.52-3.412-11.533-2.1-17.137-3.085-16.95-2.978-34.134-2.043-51.716-2.145-.589-.201-.708-.395-.646-.877 1.56-1.048 3.055-.844 4.966-.716 4.37.156 8.303.102 12.629.104 2.227-.063 4.061-.114 6.341-.048.634.155.824.194 1.279.348 15.072-.173 29.763.807 44.623 4.234z"/><path fill="#F4D3DE" d="M475.41 244.97c-2.89-.72-2.247-4.038-4.96-5.225-4.732-2.072-8.732-1.767-11.103 2.786-1.68 3.227-3.762 1.515-6.208 1.33 2.445-7.221 9.839-10.22 17.03-7.015 2.243 1 4.325 2.365 6.706 3.825-1.92 1.007 1.175 3.576-1.466 4.298zM754.501 675.004c1.635.137 2.816.27 4.228.674-.874.565-1.978.86-3.409 1.26-11.355.054-22.383.002-33.871-.142-.814-.55-.919-1.06-.538-1.954 2.162-1.558 4.155-2.328 6.762-1.088 1.97 1.254 3.855 1.62 5.627 1.198 6.941-1.648 13.837.288 21.201.052z"/><path fill="#F294AC" d="M682.219 382.422c-4.034.19-7.43-.897-8.718-5.344-.403-1.389-1.728-1.687-2.965-2.274-2.414-1.146-5.358-2.246-4.538-6.393-.127-.607-.254-.807-.207-1.318 6.365 3.962 11.876 8.957 16.428 15.329z"/><path fill="#E5A3BC" d="M299.728 740.85c1.385-1.41 2.572-2.842 5.125-3.35-2.211 4.234-1.373 7.214 2.743 9.273 2.044 1.023 2.56 3.274 2.321 5.955-4.2-2.926-7.8-6.723-10.19-11.878z"/><path fill="#546685" d="M312.063 770.647c-1.792-.084-3.515-.529-5.22-.968 2.5-4.196 7.689-3.557 10.95-6.361.749-.644 2.37-.686 2.894.796.456 1.29-.69 1.522-1.576 2.01a63.291 63.291 0 0 0-7.048 4.523z"/><path fill="#E5A3BC" d="M319.967 760.593c1.028-.657 2.22-.672 3.198.038 6.361 4.62 14.006 5.163 21.566 7.073-.18.673-.687.814-1.648.555-8.767.108-16.151-2.763-23.116-7.666z"/><path fill="#615C76" d="M768.183 671.858c1.562-4.824 4.024-9.568 1.61-15.367 3.24-.026 3.063 2.85 3.077 4.874.026 3.967-1.248 7.67-4.687 10.493z"/><path fill="#F294AC" d="M255.655 561.31c2.396 3.014 6.755 4.14 8.303 8.313-4.136-.618-6.641-3.615-8.959-7.257.056-.466.174-.597.656-1.056z"/><path fill="#F7E4EF" d="M745.132 646.7c3.239-.428 6.606-.493 10.433-.597 1.23.246 2.001.533 3.061.936-4.271 1.369-8.824 1.628-13.494-.34z"/><path fill="#546685" d="M320.653 773.85c1.159 3.178-1.121 3.39-3.362 4.029-1.507-1.019-2.844-2.534-1.818-4.01 1.176-1.69 3.172-.903 5.18-.019z"/><path fill="#F294AC" d="M719.955 433.612c-4.989-1.297-4.836-5.959-5.93-10.278 3.069 2.423 3.76 6.59 5.93 10.278z"/><path fill="#F2DFEA" d="M470.37 318.966c-.627-.477-.884-.95-1.247-1.67 3.453-1.832 7.386-.935 11.439-1.898.746.316.898.683.645 1.36-1.278.24-2.34.248-3.8.262-1.305 1.168-2.883.734-4.204 1.716-.988.22-1.726.228-2.833.23z"/><path fill="#546685" d="M701.15 767.93c-1.993 1.256-3.767.518-5.664-.041 3.07-.445 5.384-3.34 9.06-2.596-.325 2.232-2.23 1.61-3.397 2.636zM711.587 763.331c2.04-.348 3.994-.501 3.952 1.873-.028 1.593-1.691 1.97-3.055 1.665-1.968-.44-3.114-1.425-.897-3.538z"/><path fill="#F2DFEA" d="M495.602 314.69c.375.391.373.649.385 1.1-3.101.034-6.155.32-9.56 1.173-1.214-.896-2.614-.057-3.357-1.342 4.076-.573 8.11-.82 12.532-.931z"/><path fill="#FC97AC" d="M352.477 768.664c2.253-2.978 5.25-1.859 8.36-.455-2.562.415-5.245.494-8.36.455z"/><path fill="#E5A3BC" d="M665.176 366.406c-1.729.71-3.446.88-4.862-1.215-.299-.958-.306-1.706-.303-2.828 1.712.99 3.413 2.353 5.165 4.043z"/><path fill="#FC839D" d="M732.406 721.06c-.455-2.425-3.086-5.199.193-7.974.526.074.68.22.666.64-.144 2.53.219 4.81-.86 7.335zM728.749 699.227c.838-.29 1.44-.342 2.488-.526.672-.226.907-.257 1.328-.178.73.215 1.228.468 1.765 1.152.57 1.095.637 1.965.02 3.115-.415.432-.623.596-1.113.48-1.514-1.128-1.227-3.643-3.924-3.285-.505-.181-.653-.35-.564-.758z"/><path fill="#F2DFEA" d="M513.36 314.399c-3.506 1.025-7.492.493-11.806.256 3.562-.229 7.465-.288 11.806-.256z"/><path fill="#F88095" d="M594.41 768.761c1.23-2.896 3.287-2.038 5.494-.433-1.622.4-3.348.472-5.493.433z"/><path fill="#E5A3BC" d="M732.967 703.445c.186-.45.384-.444.88-.413.144 3.486-.008 6.946-.455 10.686-.295.28-.362-.212-.391-.459-.027-3.284-.024-6.321-.034-9.814z"/><path fill="#FC839D" d="M729.35 730.83c-.442-2.12-.545-4.453 1.428-6.614.514 2.144.21 4.381-1.427 6.613z"/><path fill="#615C76" d="M760.303 676.435c1.16-.956 2.572-1.678 4.317-2.46.116 2.855-1.571 3.42-4.317 2.46z"/><path fill="#E5A3BC" d="M654.388 359.993c-.837-.977-2.272-1.212-2.248-2.858 2.2-.616 2.921 1.605 4.724 2.557-.578.293-1.337.3-2.476.301zM650.95 355.636c-1.707.435-3.372.251-3.877-2.36 1.62-.156 2.772.807 3.877 2.36zM645.021 351.598c-1.641.216-3.196-.185-3.97-2.348 1.547-.008 2.973.586 3.97 2.348z"/><path fill="#FEBBC9" d="M452.83 265.39c1.96 1 2.257 2.987 2.13 5.543-1.6-1.108-1.846-3.154-2.13-5.543z"/><path fill="#F294AC" d="M253.024 559.307c.483-.561.976-.832 1.733-1.204 1.166.423 1.239 1.302 1.256 2.543.006.335-.024.362-.04.374-.202.115-.389.217-.882.228-.306-.09-.226-.164-.203-.115-.087-.126-.196-.302-.582-.34-.61-.307-.94-.75-1.282-1.486z"/><path fill="#F9CCD8" d="M482.751 315.236c1.216.46 2.071.862 3.096 1.5-1.226.246-2.622.256-4.437.26-.424-.352-.43-.7-.44-1.308.47-.344.946-.428 1.781-.452z"/><path fill="#E5A3BC" d="M312.83 755.611c1.719-.731 2.706.066 3.096 2.137-1.376.14-2.264-.759-3.097-2.137zM316.083 758.362c1.327-.432 2.758-.395 3.641 1.548-1.445.534-2.456-.363-3.641-1.548z"/><path fill="#615C76" d="M765.294 673.962c.09-1.04.929-1.65 2.243-2.113.486 1.598-.396 2.162-2.243 2.113z"/><path fill="#E5A3BC" d="M734.59 699.647c-.594 0-1.087-.263-1.713-.8.895-.914 1.617-.816 1.713.8z"/><path fill="#615C76" d="M260.782 676.157c.387-.144.557-.132.967-.033.154.703.067 1.461-.685 1.455-.854-.008-.91-.61-.282-1.422zM758.918 678.307c.552-.032.943.095 1.334.223-.107.106-.237.319-.317.301-.4-.089-.787-.237-1.017-.524z"/><path fill="#E5A3BC" d="M637.855 346.69c-.679.093-1.56-.086-2.587-.582.816-.586 1.625-.238 2.587.582z"/><path fill="#E6BBCF" d="M764.025 527.622c-.883.315-1.7.099-1.941-1.366.602.137 1.225.61 1.941 1.366z"/><path fill="#E5A3BC" d="M310.006 753.405c.455-.11 1.044.056 1.724.534-.47.122-1.03-.067-1.724-.534zM659.843 361.73c-.398.07-.963-.11-1.672-.559.406-.076.956.118 1.672.56z"/><path fill="#FC839D" d="M728.302 732.938c-.097-.418.067-1.004.502-1.748.1.421-.07 1-.502 1.748z"/><path fill="#F88095" d="M342.967 768.285c.24-.207.75-.24 1.64-.287.38-.014.415.186.436.283-.588.123-1.197.15-2.076.004z"/><path fill="#F4D3DE" d="M452.572 243.997c.132.452-.005 1.052-.429 1.792-.138-.455.01-1.05.429-1.792z"/><path fill="#546685" d="M699.989 777.242c.11.166.056.335.002.503-.055-.167-.11-.334-.002-.503z"/><path fill="#E5A3BC" d="M646.92 352.685c-.42.092-1.001-.075-1.73-.517.424-.097.996.08 1.73.517z"/><path fill="#F2DFEA" d="M567.563 239.727c-.346.028-.808-.184-1.409-.619.34-.022.816.18 1.41.62z"/><path fill="#E5A3BC" d="M657.996 360.714c-.199.07-.49-.106-.884-.522.195-.068.494.103.884.522z"/><path fill="#546685" d="M312.004 770.997a23 23 0 0 1 .365.433c-.087-.049-.175-.097-.318-.284-.057-.139-.051-.146-.047-.149z"/><path fill="#E5A3BC" d="M652.066 356.643c-.242.098-.538-.075-.932-.493.228-.09.553.066.932.493z"/><path fill="#FEA7BB" d="M254.224 561.077c.031-.462.252-.82.65-.085.036.19-.453.233-.65.085z"/><path fill="#E5A3BC" d="M639.006 347.732c-.178.056-.475-.124-.879-.548.183-.06.471.126.88.548zM635.1 345.584c-.256.108-.553-.057-.937-.473.242-.1.57.05.938.473z"/><path fill="#E6BBCF" d="M759.828 524.641c.021.372.07 1.112-.604.255 0-.229.406-.313.604-.255zM764.921 528.72c-.187.045-.447-.154-.783-.593.186-.045.448.152.783.592z"/><path fill="#FEA7BB" d="M254.757 561.387c.223-.26.417-.29.907-.338.198.314.006.575-.504.873-.223.108-.43-.305-.403-.535z"/><path fill="#E5A3BC" d="M665.781 366.706c.19.28.198.484.211.993-.247.058-.5-.19-.767-.713-.015-.276.374-.358.556-.28z"/><path fill="#F2DFEA" d="M521.142 314.762c-.118.16-.374.11-.785-.093.11-.27.378-.257.785.093z"/><path fill="#FA8EA3" d="M512.292 294.755c-.09-.298.13-.48.639-.6.188.363-.018.58-.639.6zM505.278 294.751c-.025-.368.214-.43.584-.15.087.115-.365.227-.584.15z"/><path fill="#E5A3BC" d="M298.755 739.293c.255-.093.582.11.975.598-.257.09-.58-.106-.975-.598zM311.84 754.472c.263-.115.57.038.922.458-.262.115-.57-.037-.922-.458z"/><path fill="#F7F7FC" d="M377.718 350.264c1.403 2.321 3.49 3.5 5.923 4.713 2.683 3.69 1.024 6.634-1.576 9.11-4.268 4.067-9.358 7.18-13.817 11.627-.273.262-.248.286-.26.274-1.27 1.593-2.975 2.92-3.231 5.484.004.782-.03 1.226-.232 1.974-.287.456-.45.604-.932.658-4.032-.591-6.513 1.197-8.473 4.542-.538.758-.938 1.187-1.825 1.373-1.18.081-1.972.29-2.284 1.612-1.165 1.499-2.583 2.072-4.525 2.417-1.677.12-2.896-.141-4.318-1-1.472-3.47-4.997-2.945-7.413-4.799-.284-.763-.247-1.22.217-1.845.308-.176.216-.252.209-.193.053-.326.24-.64.806-.976.27-.085.149-.061.187-.013 3.149-3.89 5.725-8.336 10.687-10.946.32-.129.233-.18.227-.13.144-.313.383-.606.97-.94a23.632 23.632 0 0 0 2.909-2.689c.264-.614.473-.925 1.013-1.284.268-.09.157-.054.199-.013.54-1.173 1.51-1.905 2.929-2.445.305.048.544-.085.627-.193-.435-1.806 1.235-1.602 2.247-2.357.605-.11.84-.224 1.082-.652.156-.622.375-.974 1.015-1.353 6.605-3.133 11.254-8.536 17.64-11.956z"/><path fill="#FADDE6" d="M341.695 391.787c1.405.544 2.505.876 3.956 1.216 1.086 5.045-3.052 7.732-5.7 10.49-5.72 5.956-10.862 12.806-19.67 15.187-3.745 1.012-4.82 5.583-7.044 9.04-1.35.317-3.05.08-3.278 1.135-.671 3.111-3.333 3.148-5.729 4.145.249-2.36 1.48-4.429 3.009-6.742.552-.572.905-.812 1.303-1.31.001-.322-.021-.422-.023-.474 1.66-.045 1.84-1.26 1.787-2.698-.22-.212-.122-.587.049-.679 1.776-.696 1.99-2.138 2.42-3.867.17-.316.21-.236.172-.261 2.536-1.12 3.766-3.642 5.683-5.435.962-.9 1.614-2.341 2.859-2.705 7.382-2.155 10.595-8.252 14.023-14.274 1.194-2.097 3.332-3.143 6.183-2.768z"/><path fill="#F7E4EF" d="M341.856 391.67c-2.835 1.498-4.356 4.075-6.378 6.168-3.65 3.778-4.606 11.025-11.707 11.22-1.867.051-2.667 1.65-3.806 2.867-1.836 1.959-3.02 4.854-6.676 5.032 4.743-9.637 11.566-18.036 18.686-26.632.019-.565-.104-.822.18-1.208.406-.13.731-.425.802-.51.118-.596.381-.918 1.23-.896 2.412 1.943 7.002-1.381 7.67 3.959z"/><path fill="#615C76" d="M346.803 374.1c-3.05 3.71-6.48 7.373-10.25 11.103 1.244-5.328 4.395-9.298 10.25-11.103z"/><path fill="#F7E4EF" d="M309.846 421.722c1.08.228 2.057.575 1.647 1.79-.34 1.006-1.19 1.33-2.591 1.08-.022-1.017.34-1.865.944-2.87z"/><path fill="#615C76" d="M355.085 366.585c-.54.987-1.409 1.737-2.571 2.581-.464-1.76.058-3.013 2.57-2.581z"/><path fill="#F7E4EF" d="M312.65 417.096c.163 1.316.995 3.196-1.712 3.873.198-1.206.809-2.449 1.713-3.873z"/><path fill="#5D6683" d="M380.975 348.007c-.57.734-1.462 1.335-2.68 1.926-.284-1.81-.125-3.457 2.68-1.926z"/><path fill="#615C76" d="M357.886 364.082c-.253.744-.912 1.46-1.82 2.284-1.449-1.903-.181-2.22 1.82-2.284zM334.658 387.568c-.458.447-.776.63-1.363.884-.273-1.026-.17-2.055 1.596-2.256.228.391.066.75-.233 1.372z"/><path fill="#F7E4EF" d="M308.315 424.68c.478.55.267.955-.574 1.255-.059-.365.143-.783.574-1.255z"/><path fill="#615C76" d="M332.31 389.01c.243.178.235.378.016.792-.368-.032-.526-.28-.685-.526.14-.081.279-.163.67-.266zM335.974 385.216c.096.243-.092.552-.54.957-.089-.232.084-.56.54-.957zM348.04 373.181c.057.227-.176.528-.683.922-.052-.22.172-.534.684-.922z"/><path fill="#5D6683" d="M387.533 340.55c-.056.033.055-.033 0 0z"/><path fill="#615C76" d="M351.964 369.216c.07.222-.144.519-.618.927-.061-.21.137-.531.618-.927zM360.075 362.215c.074.237-.162.565-.67 1.03-.062-.221.149-.58.67-1.03z"/><path fill="#5D6683" d="M336.74 786.809c1.12.343 1.981.5 3.047.918-.974.116-2.154-.03-3.57-.443-.068-.4.099-.53.524-.475z"/><path fill="#546685" d="M336.968 786.7c-.139.298-.308.3-.732.309-.571-.098-.83-.283-1.144-.763.778-1.328 1.416-1.129 1.876.455z"/><path fill="#5D6683" d="M343.332 787.998c-.334-.003-.332-.498-.332-.746.556-.08 1.111.088 1.835.5-.278.245-.723.247-1.503.246zM420.143 787.248c.273-.944.798-1.28 1.718-.453-.286.922-.815 1.235-1.718.453zM585.45 464.062c-.451.022-.74-.189-.918-.183-.792-.2-1.41-.39-2.274-.754-.231-.228-.238-.148-.203-.169-3.766-1.21-6.762-3.229-7.762-7.772-.14-.325-.072-.308-.063-.341-4.701-7.124-1.934-16.706 6.552-21.506.382-.14.445-.051.497-.034 11.765-4.28 21.198-.706 24.4 9.24 3.35 10.4-4.322 21.2-15.312 21.534-1.487.045-2.977-.022-4.917-.015zM444.242 445.64c1.348 10.896-7.303 17.666-14.623 18.412-9.593.976-16.471-4.536-18.084-14.511-1.323-8.18 4.778-16.406 13.473-18.167 8.892-1.8 16.923 4.014 19.234 14.266z"/><path fill="#FBFAFC" d="M466.188 398.759c-10.719.566-16.41-2.565-18.168-9.658-1.982-7.99 1.971-15.404 9.474-17.768 5.878-1.852 15.325 2.131 17.41 7.34 3.239 8.096.599 15.443-6.959 19.349-.442.228-.908.41-1.757.737z"/><path fill="#FBD2DC" d="M552.257 398.185c-3.888-4.318-5.034-9.559-6.041-14.644-.906-4.57 8.246-12.555 13.516-12.394 5.821.179 13.544 5.63 14.99 10.58 2.541 8.699-7.182 18.786-16.532 17.14-1.455-.255-2.9-.575-4.77-.864-.588.127-.754.253-1.163.182z"/><path fill="#FBFAFC" d="M363.185 384.376c.091-.367.367-.358.505-.355.323-.15.51-.304.98-.683 2.023-1.04 3.677-2.152 6.042-1.569 5.91.253 9.944 3.304 13.874 7.264.36 1.113.389 2.144.438 3.563-.333 10.03-5.777 15.684-14.394 15.418-5.641-.174-8.655-3.816-10.479-8.442-1.737-4.405-2.536-9.002 1.867-12.708.559-.47.727-1.403 1.167-2.488z"/><path fill="#FA8EA3" d="M355.504 453.948c-4.955.467-9.09-.848-10.239-5.448-1.012-4.052-1.05-8.538 3.809-11.215 4.518-2.49 8.259-1.347 11.733 1.718 4.674 4.125 2.215 11.467-5.303 14.945z"/><path fill="#FEAABE" d="M420.717 377.598c.763 4.433-1.201 6.723-4.73 8.52-2.743 1.397-4.385.083-6.186-1.342-3.6-2.847-2.886-6.458-1.024-9.692 1.88-3.263 5.857-3.395 9.473-.966 1.186.796 1.755 1.927 2.467 3.48zM595.166 369.753c-7.481.226-9.877-1.302-10.203-5.819-.221-3.062.955-5.398 3.6-6.495 3.36-1.394 6.56-.294 9.187 2.092 2.148 1.952 1.286 4.216.285 6.41-.344.754-.638 1.53-.997 2.671-.596.548-1.15.722-1.872 1.141z"/><path fill="#FEBBC9" d="M517.964 352c-3.304-.01-6.125.027-8.944-.047-1.706-.045-2.834-.924-2.925-2.73-.101-2.036 1-3.153 2.974-3.175 5.307-.06 10.617-.052 15.925.003 1.708.018 2.826.935 2.91 2.739.096 2.041-1.015 3.095-2.987 3.168-2.154.08-4.313.033-6.953.042zM564.84 321.307c.608-.315 1.05-.313 1.825-.31 1.058 2.913 2.537 5.104 5.987 5.395-1.912 1.918-8.194 2.388-9.66.801-2.489-2.694.145-4.001 1.848-5.886z"/><path fill="#F9CCD8" d="M473.332 318.964c-.14-2.13 1.441-1.961 3.3-1.949.174 2.177-1.439 1.96-3.3 1.949z"/><path fill="#FEBBC9" d="M551.792 398.15c.222-.162.714-.154.96-.15.11.758.144 1.76-1.029 1.49-.528-.12-.477-.727.069-1.34z"/><path fill="#FA8EA3" d="M663.077 418.743c3.29 3.45 5.247 6.944 3.125 11.422-1.803 3.808-5.115 4.95-9.02 4.834-3.128-.092-6.194-.937-7.462-3.983-1.356-3.259-1.735-7.068.543-10.006 2.168-2.795 5.416-4.371 9.226-3.65 1.126.214 2.19.755 3.588 1.383zM679.47 440.142c4.586-2.334 7.877-.961 10.712 2.57 2.333 2.907 2.04 5.945.386 8.793-1.882 3.242-4.9 4.957-8.792 4.408-3.26-.46-5.465-2.404-6.438-5.516-1.337-4.279.73-7.364 4.132-10.255z"/><path fill="#FC97AC" d="M611.513 416.632c-3.322-3.1-4.688-6.744-2.795-10.466 1.747-3.436 4.68-6.18 9.223-4.637 3.632 1.233 6.898 7.197 5.899 10.443-1.094 3.555-5.778 5.961-10.022 5.155-.65-.123-1.307-.215-2.305-.495z"/><path fill="#FEBECC" d="M568.838 436.175c-.61 4.69-4.04 8.468-2.251 13.27.479 1.284-.489 2.265-1.852 2.33-1.693.082-1.965-1.312-1.585-2.4 1.471-4.219.603-8.549.85-12.819.08-1.388.243-2.773 1.755-3.234 2.081-.635 2.383 1.196 3.083 2.853zM580.79 433.136c-6.41 5.507-9.144 12.302-6.555 21.272-2.367.876-3.682-.2-3.165-2.483.81-3.579.229-7.249.867-10.929 1.059-6.1 4.986-6.102 8.852-7.86zM574.103 455.263c2.346 2.33 4.368 5.34 7.802 7.392.02.288-.143.298-.306.304-7.151.292-7.151.292-7.496-7.696z"/><path fill="#FEA1B6" d="M631.032 351.359c.763 1.35 4.821-2.362 3.942 2.387-1.608-.015-3.15-.374-3.942-2.387zM625.14 347.279c.146-.806.493-1.79.711-1.763 1.573.2 1.623 1.68 2.107 3.147-1.127.34-2.04-.118-2.818-1.384z"/><path fill="#FEBECC" d="M581.045 325.393c.746.404.752.814.224 1.176-.11.076-.368.074-.476-.004-.52-.376-.501-.785.252-1.172zM598.742 426.356c.25.015.386.148.523.282-.213-.054-.425-.109-.523-.282zM582.21 463.184c.442-.118 1.068.05 1.918.46-.428.104-1.08-.035-1.917-.46z"/><path fill="#E6BBCF" d="M272.273 536.944c.16-.568.652-1.159 1.412-1.866.255.837.004 1.627-1.412 1.866zM274.289 534.931c.157-.566.642-1.153 1.395-1.856.26.834.013 1.619-1.395 1.856z"/><path fill="#FEA1B6" d="M704.62 718.701c3.494 6.48-3.266 17.061-10.967 21.953-4.734 3.007-9.816 4.403-15.426 4.377-15.092-.07-30.185.006-45.745.042-4.44 2.363-8.691 1.35-13.286.906-.828-.395-1.555-.85-1.402-1.12 3.689-6.476-2.689-10.583-3.826-15.915-.735-3.443-1.975-6.64.068-10.318 3.372-1.582 6.6-.9 10.185-1.102 3.344-.278 6.194-1.106 9.598-.93 8.179.405 15.902 1.83 24.119.19 14.619 1.004 28.809.464 42.984.744 1.164.023 2.294.269 3.698 1.173z"/><path fill="#FE839C" d="M617.614 744.711c4.748.304 9.109.315 13.935.353.665 2.596-.953 2.668-2.971 3.02-10.708 1.871-21.484.425-32.21.949-1.343.065-3.503-.856-3.787 1.143-.237 1.666 1.917 2.507 3.21 2.5 4.331-.021 7.951 3.189 12.45 2.39 2.512-.446 2.884 1.1 1.703 2.984-.931 1.485-.527 2.827.018 4.596-3.708.548-7.538-.326-11.053 2.08-1.019.698-3.105.594-4.361.059-6.55-2.791-12.835-2.19-19.561-.201-3.97 1.174-8.614.677-12.864.172-9.096-1.08-18.132-1.262-27.2.063-.969.142-2.05.252-2.958-.024-14.192-4.313-28.792-3.81-43.36-3.851-1.783-.005-5.083 1.051-5.058-1.302.033-3.083 3.402-1.238 5.276-1.59 1.773-.331 3.656-.057 5.439-.36 1.75-.296 3.63-1.723 3.309-3.242-1.576-7.463 3.74-5.41 7.282-5.397 5.973.022 11.822-1.713 17.824-1.088 1.37.142 2.188-.583 2.315-2.412 3.416-3.222 7.441-1.718 11.682-2.021 24.566 1.623 48.64-1.038 72.722-.112 2.638.101 5.351-.356 8.218 1.291zM634.306 717.762c-3.1-.023-5.794.59-8.897 1.174-3.551-5.67-1.92-8.984 4.493-9.265 5.18-.228 10.13-.414 14.845-3.292 2.977-1.818 6.88-1.084 10.32-.667 5.812.705 11.582 1.183 17.41.326 1.52-.224 2.996.002 4.442 1.425 1.654 2.3-2 4.168-.26 5.634 1.778 1.498 4.437.487 6.705.622 1.304.078 2.625.08 3.985-.136.935-1.621-1.378-2.55-.696-4.349 4.177-1.516 8.768.402 12.484-2.67-3.062-2.722-7.599-1.826-11.207-4.283-.427-.736-.457-1.218-.144-2.013.219-.303.703-.337.946-.341 7.4-.888 14.586-.187 22.224-.375.733.198.997.367 1.154.993-.205 2.9 2.518 1.952 3.413 3.374-.936 2.003-2.767 2.058-4.567 2.068-1.57.009-3.051.195-3.798 1.78-1.35 2.87-3.723 3.47-6.597 3.265-1.351-.096-2.896.1-3.105 1.754-.223 1.771 1.365 1.838 2.64 2.271 1.86.63 4.557.14 4.899 3.552-15.363.137-30.762 1.11-46.55-.59-8.178-3.058-16.009-1.603-24.139-.257z"/><path fill="#DF8AA3" d="M712.409 700.212c-7.769-.227-15.131-.234-22.964-.266 1.05-1.549 2.984-.91 4.737-.92 11.29-.058 22.58-.033 34.336-.037.467-.001.46.492.45.738-.012.246-.49.255-.728.26-1.579.885-3.063.377-4.866.223-.82-.222-1.263-.224-2.037-.223-3.017.988-5.792.312-8.928.225z"/><path fill="#FC839D" d="M712.002 700.245c2.7-.254 5.401-.256 8.552-.257-2.046 2.034-4.979.566-8.112 1.014-.44-.168-.44-.336-.44-.757zM723.225 700.262c1.162-.272 2.552-.272 4.36-.271-.942 1.501-2.52 1.162-4.36.27z"/><path fill="#F294AC" d="M658.323 366.957c-.245-.872 0-1.666 1.377-1.928.323-.048.3-.029.31-.04-.082.894-.308 1.705-1.687 1.968zM690.55 400.467c.034.056-.033-.056 0 0zM658 367a1.39 1.39 0 0 1-.139.053c.139-.054.139-.053.139-.052z"/><path fill="#FEB1C4" d="M537.391 744.742c-4.079.292-7.77.308-11.918.365-22.147.01-43.835-.019-65.99-.023-.885.314-1.345.446-2.177.209-8-.203-15.679-.22-23.823-.205-28.82.004-57.174-.025-85.993-.037-12.457 1.312-20.777-3.72-25.555-14.679-1.454-3.333-1.996-6.904-1.976-10.983 6.073-3.175 12.693-2.495 18.998-2.708 10.238-.347 20.515.81 31.226 1.303 1.916.827 3.315 1.618 5.06 1.618 7.547.002 15.095.043 22.642-.03 1.165-.01 2.29-.191 3.668-1.12 2.243-.869 4.096-.872 6.412-.218 2.844 1.793 5.579 1.345 8.209 1.346 44.623.024 89.246.016 133.87.017 1.83 0 3.665.078 5.493.016 4.119-.14 6.664 2.092 6.567 5.879-.18 6.93 3.961 9.643 9.56 11.43.792.254 1.58.524 2.36.817 1.692.635 2.943 1.605 2.704 3.65-.254 2.172-1.838 2.623-3.617 2.56-9.636-.344-19.257 1.36-28.907.148-2.114-.266-4.323-.407-6.813.645z"/><path fill="#FD8CA4" d="M456.995 745.44c.44-.353.893-.373 1.683-.363.193.898.634 2.175-.593 2.388-1.111.193-.931-.974-1.09-2.024z"/><path fill="#F8CAD5" d="M727.962 673.649c-2.031.68-4.1 1.008-6.565 1.345-2.903 1.747-5.754.709-8.906 1.002h-5.657l-152.858.001c-3.072 0-5.655-.002-8.722 0H496.85c-3.051 0-5.62-.002-8.674 0-13.964-.002-27.443.01-40.922-.013-1.817-.003-3.668.243-5.844-.708-50.498-.27-100.588-.27-151.35-.27 1.469-2.617 3.256-1.91 4.681-1.974 1.733-.079 3.517-.104 4.176-2.008 1.278-3.688 4.371-3.552 7.003-2.88 4.364 1.113 8.524-.793 12.79-.193 1.373.193 2.17-.618 2.291-2.437 1.21-1.845 2.902-2.004 4.547-2.004 8.6 0 17.206-.46 26.244.38 5.945 2.465 11.495 2.572 17.516.301 4.671-1.21 8.995-.67 13.285-.757 14.23-.287 28.473.524 43.186-.517 5.8.48 11.124.47 16.45.469 88.893-.012 177.785-.014 266.677.013 3.133 0 6.346-.482 9.717 1.28.575 3.142 2.86 3.955 4.854 5.091 1.653.942 3.885 1.196 4.485 3.879z"/><path fill="#FBFEFD" d="M426.234 663.668c-2.194 1.591-4.393 1.325-6.532 1.329-16.584.027-33.168.037-50.22.07-5.486 1.705-10.585.917-16.084.266-10.755-.261-21.099-.271-31.907-.253-8.599-.006-16.795-.677-24.847.115-7.089.696-12.258-8.511-8.532-13.82.834-1.187.893-2.455.921-4.207 4.712-.63 9.407-.837 14.561-.98.459.066.908.245 1.134.158 38.264-.107 76.302-.127 114.801-.067 9.555 3.622 11.633 9.056 6.705 17.389z"/><path fill="#FADDE6" d="M441.003 675.297c15.352-.291 30.706-.292 46.527-.29.813.307.95.688.663 1.384-15.564.324-30.909.406-46.719.425-.466-.45-.469-.839-.471-1.519z"/><path fill="#FED6E3" d="M313.38 427.992c.028-5.287 3.63-9.93 8.614-11.098 5.18-1.214 8.22-5.391 11.787-8.594 4.69-4.213 8.86-9.099 12.185-14.943 1.445-.692 2.854-1.037 4.628-1.397-1.176 5.096-5.582 8.125-8.746 11.973-6.274 7.631-13.31 14.634-20.865 21.05-2.047 1.739-4.525 2.696-7.602 3.009zM353.046 390.345c.413-.647.871-.981 1.626-1.35.266.84.558 1.88-.31 2.443-.643.42-1.045-.183-1.316-1.093z"/><path fill="#FC87A2" d="M371.41 719.26c-17.11-.208-33.814-1.707-50.99-.302-4.069-1.8-7.946-1.066-11.635-.85-5.556.326-10.616-.721-15.593-3.267-3.376-4.13-1.062-8.985-1.145-13.528-.042-2.264 3.455-2.332 5.869-2.326 19.784.048 39.568.022 59.352.022 27.598 0 55.196.003 83.263.01.6.27.731.535.772 1.231-.795 1.638-2.175.872-2.78 1.252 18.51.074 37.33.13 56.151.105 8.156-.011 16.312.044 24.468-.035 1.93-.019 4.033.546 6.055-1.288 1.713-1.046 3.15-.809 5.002-.359 5.49 1.045 10.563 1.876 15.754 1.69 8.178-.295 16.307.248 24.406 1.459 4.305.643 8.53.243 12.857-.737 7.692-1.742 15.58-.835 23.383-.53 2.264.089 4.479 1.37 4.615 3.816.157 2.845-2.578 3.425-4.614 3.511-7.817.33-15.593 1.383-23.42 1.401-20.826.047-41.747-1.236-62.456.325-27.447 2.069-54.887 1.192-82.316 2.001-7.732.228-15.571.385-23.386.111-7.736-.27-15.597-.76-23.372.168-5.376.643-10.763-1.62-16.467.259 15.13.199 29.936-.463 44.695.23 16.295.764 32.568-.217 48.862.364 22.114.788 44.261.541 66.396.462 1.997-.008 4.007-.103 5.984.257 2.127.388 3.943 1.114 3.066 4.277-1.992 1.314-3.86.99-5.665.992-41.586.021-83.171.019-124.757.006-1.652 0-3.335.197-5.347-.725-2.13-.28-3.846-.283-5.991-.282-1.836 1.205-3.552 1.044-5.197.998-8.469-.236-16.957.589-25.818-.719z"/><path fill="#FEA1B6" d="M297.913 719.487c1.59.987 2.917 1.963 4.087 3.1 1.058 1.027 1.36 2.32.2 3.489-1.391 1.4-2.493.308-3.25-.745-1.219-1.693-2.747-3.43-1.037-5.844zM294.245 720.84c-.565-.311-.88-.798-1.205-1.59.384-.625.832-.759 1.64-.501.142.775-.022 1.345-.435 2.091z"/><path fill="#FC87A2" d="M294.945 718.638c-.394.32-.829.325-1.588.32-.335-.444-.344-.877-.355-1.633.888-.25 1.685-.044 1.943 1.313z"/><path fill="#FED6E3" d="M368.38 375.986c.94-4.561 5.088-6.317 8.424-8.894 3.73-2.881 8.284-5.264 7.183-11.658.223-1.88-1.458-3.103-.526-4.72 1.834-.742 1.748 1.578 2.941 1.893 1.029.272 1.853.52 2.275-.874 1.77-5.846 5.406-9.8 11.665-10.598 3.822-.487 5.358-4.526 9.099-5.27 1.558-.309 3.101-.84 5.148-.869-2.62 3.228-5.737 6.38-8.658 9.702-4.43 5.039-11.122 7.058-15.687 11.801-5.182 5.385-10.088 11.042-14.978 16.699-1.787 2.068-3.747 3.189-6.886 2.788zM370.966 381.646c-1.738.978-3.51 1.613-5.638 2.265-.845-.368-.78-1-1.228-1.688-1.538-3.586.902-4.836 3.533-6.21.223 2.35 2.93 3.171 3.333 5.633z"/><path fill="#F7E4EF" d="M426.387 664.028c-.857-3.117 2.18-5.304 1.373-8.637-1.055-4.358-4.25-6.353-7.693-8.71 25.551-.422 51.178-.605 76.806-.604 79.732.002 159.465.074 239.66.202-.758 2.661-3.437 2.237-5.475 2.57-2.727.448-3.279 1.137-2.283 3.804 2.899 7.762-.16 11.844-9.374 12.356-95.185 0-189.962-.005-284.74-.016-2.65 0-5.34.297-8.274-.965z"/><path fill="#FC839D" d="M544.37 719.207c-.204-3.883-2.813-3.19-4.865-3.194-14.155-.025-28.31.114-42.463-.053-11.362-.134-22.718-.765-34.08-.894-5.617-.065-11.232-.446-16.881.778-5.565 1.206-11.2-.82-16.831-.831-17.818-.035-35.636-.012-53.454-.014-1.166 0-2.333.017-3.496-.037-1.034-.048-2.077-.25-1.986-1.618.07-1.053.962-1.2 1.81-1.305 2.786-.344 5.619-1.19 8.35-.936 5.772.538 11.496.039 17.23.088 4.916.042 10.047-.652 14.675.115 8.13 1.347 16.274.382 24.125.139 21.123-.655 42.37 1.434 63.296-.777 28.438-3.003 56.812-.59 85.187-1.66 6.955-.263 13.855-1.441 20.856-1.104 1.524.073 3.096-.827 4.785-1.32-1.083-2.93-2.956-3.66-5.542-3.617-6.16.105-12.33.211-18.48-.04-2.977-.12-4.841 2.44-7.964 2.177-14.339-1.206-28.711-2.005-43.064-3.055-1.922-.14-3.952.613-5.658-.814 1.691-1.612 3.597-1.1 5.84-1.23 8.014-.058 15.572.117 23.564-.188 3.922-.578 7.433-.116 11.302-.58 1.442-.22 2.507-.222 3.972-.221 1.278.65 2.3.495 3.284.494 23.421-.034 46.843.09 70.693-.276 2.142-.22 3.856-.22 5.998-.217 8.84 1.147 17.298.125 26.14.779.417.22.382.651.352.865 1.916 1.93 4.247-.156 6.6 1.094 4.831.436 8.902 2.445 13.25 3.268.639.121 1.386.102 1.56.91.22 1.025-.511 1.621-1.3 1.8-4.398.994-8.623 3.85-13.777 1.316-3.361 2.05-6.496 1.724-10.042.284-.985-1.665-2.09-2.658-3.495-2.23-8.239 2.506-16.42-.508-24.625-.116-2.281.11-4.202.129-6.243 2.04-3.08 2.885-7.487 1.95-11.43 1.968-7.144.031-7.454.356-6.562 7.55-3.362.405-6.726.427-10.548.46-3.99 2.312-7.936.739-11.638.98-19.359 1.256-38.735.727-58.446-.778z"/><path fill="#DF8AA3" d="M536.372 700.755c-2.105.213-3.796.213-5.908.21-1.269-1.19-2.542-.933-4.095-.974-1.127.655-1.987 1.105-3.467 1.33-21.9.158-43.313.034-65.211.116-5.645-.276-10.877.861-16.32-1.117-.355-.338-.363-.817-.367-1.057 43.017-.247 86.04-.255 129.53-.254-2.738 1.98-6.274.536-10.081.983-8.168 1.143-15.935.12-24.08.763zM648.535 699.006c-.522 1.24-1.92.974-3.22.975-22.596.008-45.192.006-67.788-.015-.643 0-1.287-.24-2.23-.659 24.056-.296 48.413-.303 73.238-.301zM681.416 699.955c-8.794-.247-17.32.553-26.116-.646 8.522-.298 17.342-.308 26.162-.31.14 0 .403.111.4.156-.018.248-.1.493-.446.8z"/><path fill="#F88095" d="M688 701.66c-2.16.14-4.384.807-6.727-.465 1.934.151 3.861-1.063 6.337-1.226.393.448.392.9.39 1.69z"/><path fill="#F7E4EF" d="M304.73 646.188c.224.071-.086.406-.086.406s-.429-.068-.51-.204c-.081-.136.37-.274.595-.202z"/><path fill="#FADDE6" d="M552.787 675.268c51.237-.26 102.256-.262 153.744-.263.816.302.942.683.66 1.371-19.82.312-39.423.425-59.025.448-31.408.036-62.815.013-94.686-.05-.813-.384-.962-.778-.693-1.506zM495.787 675.258c16.236-.251 32.255-.255 48.742-.254.808.329.96.722.674 1.447-16.233.293-32.247.331-48.72.287-.806-.389-.957-.772-.696-1.48zM711.787 675.248c2.914-.244 5.614-.246 8.765-.247.445.38.44.758.436 1.42-2.695.318-5.39.351-8.523.29-.777-.394-.928-.77-.678-1.463z"/><path fill="#F4D3DE" d="M495.56 675.006c.449.37.454.735.461 1.375-2.389.334-4.78.395-7.609.353-.43-.462-.424-.823-.415-1.454 2.374-.273 4.746-.275 7.562-.274zM545.421 676.798c-.434-.47-.43-.847-.425-1.508 2.374-.284 4.747-.285 7.564-.283.448.38.452.758.456 1.419-2.384.343-4.77.403-7.595.372zM711.583 675.004c.423.36.429.718.44 1.345-1.406.336-2.815.405-4.637.37-.405-.46-.397-.818-.388-1.445 1.39-.27 2.78-.271 4.585-.27z"/><path fill="#FBCDD7" d="M363.907 382.363c.334.104.682.54 1.048 1.272-.172.315-.362.336-.84.374-.257-.427-.225-.87-.208-1.646z"/><path fill="#FEAABE" d="M543.546 718.912c18.937-.004 37.407.192 55.87-.059 4.59-.062 9.16-1.203 14.157.153.31 7.403 2.24 13.98 7.378 19.609 3.348 3.668-2.032 3.696-2.894 6.04-26.755.36-53.455.369-80.604.37.011-2.81 2.24-1.985 3.898-1.995 10.152-.06 20.306-.001 30.459-.064 1.499-.009 3.716.758 3.987-1.734.288-2.653-1.962-1.98-3.491-2.262-8.263-1.525-10.784-4.192-11.28-12.28-.263-4.285-2.018-5.808-6.546-5.792-46.936.169-93.874.116-140.811.054-1.836-.003-4.05.997-5.578-1.568 44.937-.412 89.961-.424 135.455-.472z"/><path fill="#FC839D" d="M634.44 718.017c-.193-2.506 1.884-1.72 3.334-2.16 5.512-1.676 11.15-.521 16.718-.835 1.62-.092 2.928.453 3.456 2.6-5.8 2.224-11.742 1.355-17.664.965-1.806-.12-3.603-.374-5.845-.57z"/><path fill="#F88095" d="M579.89 747.997c2.281.007 3.924.712 5.544 1.577-1.942 2.098-12.834 3.524-14.99 1.932-.455-.335-1.027-1.213-.88-1.541.608-1.348 1.566-2.475 3.12-2.866 2.381-.6 4.504.775 7.206.898z"/><path fill="#FD889E" d="M514.979 752.743c2.098-.849 3.99-1.295 4.586 1.236.26 1.104-.827 1.796-1.867 1.866-1.934.129-3.808-.007-2.72-3.102z"/><path fill="#F88095" d="M676.785 709.288c3.245-.288 6.275-.288 9.759-.288.589 2.351 3.477 2.925 3.898 5.544-4.719.929-9.44.274-14.113.418-1.057.032-1.94-.323-2.186-1.532-.416-2.06 1.005-2.955 2.642-4.142z"/><path fill="#FEAABE" d="M371.091 719.383c9.931-.403 19.95-.407 30.437-.404.308 1.406-.503 2.012-1.884 2.008-8.989-.03-17.978-.03-26.966-.119-.503-.005-1-.708-1.587-1.485z"/><path fill="#F4D3DE" d="M353.088 665.468c4.93-.407 9.96-.427 15.46-.415.138.57-.176 1.563-.521 1.574-4.962.155-10.003 1.498-14.94-1.16z"/><path fill="#FC839D" d="M440.748 700.27c5.283-.286 10.298-.283 15.78-.278 1.332.685 2.359.519 3.34.517 20.763-.034 41.527.093 62.712-.287 1.172-.23 1.922-.23 3.047-.23.584 2.496-.794 3.035-2.994 3.032-26.238-.043-52.475.02-78.712-.094-3.248-.014-6.44-1.295-9.807-1.557 2.122-.272 4.244-.544 6.634-1.104z"/><path fill="#FC97AC" d="M295.402 705.45c1.005-1.156 2.165-2.007 2.962-.781.798 1.228-.17 2.588-1.399 3.012-1.506.52-1.941-.55-1.563-2.23z"/><path fill="#FC87A2" d="M536.43 700.98c4.29-2.103 9.294-.568 14.172-.952 2.803-.221 5.64-.038 8.93-.035-3.943 2.138-8.624.608-13.167.96-3.136.243-6.306.041-9.934.026zM634.6 703.104c1.87.087 3.568-.65 5.418 1.277-2.523.257-4.61 2.265-5.418-1.277zM619.435 706.88c.327-1.822.445-1.944 1.381-1.844.79.083 1.898.18 1.522 1.218-.372 1.027-1.63.68-2.903.626zM522.533 699.992c-.501 1.264-1.902 1-3.202 1-19.94.009-39.881.008-59.822-.015-.642 0-1.285-.251-2.22-.684 21.395-.3 43.085-.302 65.244-.301z"/></svg>